<svg width="25" height="25" viewBox="0 0 25 25" fill="none" xmlns="http://www.w3.org/2000/svg">
<path d="M24.5622 10.654L13.7523 0.859858C13.2491 0.403234 12.4756 0.393916 11.9631 0.85054L0.799103 10.6819C0.33316 11.092 0.212015 11.7816 0.510219 12.3314C0.82706 12.9185 1.57257 13.5987 2.64424 13.5987C2.87721 13.5987 3.10086 13.5708 3.33383 13.5056V22.2466C3.33383 22.4796 3.37111 23.076 3.83705 23.5513C4.17253 23.8961 4.62915 24.0918 5.13237 24.0918C5.72878 24.0918 10.6678 24.0825 10.6771 24.0825L14.4233 24.0638H19.8469C20.3873 24.0638 20.8812 23.8588 21.2354 23.486C21.7293 22.9735 21.7759 22.3305 21.7665 22.0882V13.3937C22.0647 13.4869 22.3629 13.5335 22.6611 13.5335C23.7887 13.5335 24.5436 12.8439 24.8511 12.2475C25.1306 11.7256 25.0095 11.064 24.5622 10.654ZM16.0913 20.4015C13.6125 22.8803 10.966 21.6689 9.37245 20.2617C8.62694 21.0631 8.12373 21.6036 8.12373 21.6036L5.43058 21.7434C5.43058 21.7434 6.73522 20.942 8.62695 19.5162C7.22912 17.9227 6.05494 15.2948 8.52444 12.8253C11.2083 10.1414 18.7193 10.1974 18.7193 10.1974C18.7193 10.1974 18.7752 17.7177 16.0913 20.4015Z" fill="black" fill-opacity="0.8"/>
</svg>
