<svg width="21" height="18" viewBox="0 0 21 18" fill="none" xmlns="http://www.w3.org/2000/svg">
<path fill-rule="evenodd" clip-rule="evenodd" d="M16.914 4.22698C16.2973 4.16028 15.4954 4.15931 14.351 4.15931L5.01234 4.15931L5.70414 9.65542C5.83149 10.6671 5.92123 11.3732 6.04641 11.914C6.16856 12.4416 6.30998 12.7408 6.49872 12.963C6.64285 13.1327 6.81083 13.2806 6.99743 13.4022C7.24181 13.5615 7.55671 13.6643 8.09631 13.7195C8.64932 13.7761 9.36225 13.7769 10.3836 13.7769L14.351 13.7769C15.4954 13.7769 16.2973 13.776 16.914 13.7093C17.5176 13.644 17.8599 13.5225 18.1158 13.3369C18.3118 13.1947 18.4841 13.0227 18.6264 12.8271C18.8124 12.5716 18.934 12.2298 18.9994 11.6272C19.0662 11.0115 19.0672 10.2109 19.0672 9.06831L19.0672 8.86794C19.0672 7.72534 19.0662 6.92471 18.9994 6.30901C18.934 5.70643 18.8124 5.3647 18.6264 5.10915C18.4841 4.91353 18.3118 4.74151 18.1158 4.59938C17.8599 4.41371 17.5176 4.29227 16.914 4.22698ZM17.0653 2.83258C17.7884 2.91079 18.4062 3.07635 18.9416 3.46468C19.2568 3.69331 19.5339 3.97005 19.7629 4.28474C20.1519 4.81923 20.3177 5.43602 20.3961 6.15793C20.472 6.85805 20.472 7.73482 20.472 8.82723L20.472 9.10902C20.472 10.2014 20.472 11.0782 20.3961 11.7783C20.3177 12.5002 20.1519 13.117 19.7629 13.6515C19.5339 13.9662 19.2568 14.2429 18.9416 14.4716C18.4062 14.8599 17.7884 15.0255 17.0653 15.1037C16.3641 15.1795 15.486 15.1795 14.3918 15.1795L10.3457 15.1795C9.37111 15.1795 8.5861 15.1795 7.9531 15.1148C7.2985 15.0478 6.73509 14.9062 6.22953 14.5767C5.92935 14.3811 5.65912 14.1431 5.42727 13.8701C5.0368 13.4104 4.82585 12.8699 4.67767 12.2298C4.53438 11.6109 4.43651 10.8332 4.315 9.86784L3.41992 2.75674L14.3918 2.75674C15.4859 2.75673 16.3641 2.75672 17.0653 2.83258Z" fill="white"/>
<path fill-rule="evenodd" clip-rule="evenodd" d="M2.7409e-09 1.45434C1.22714e-09 1.06703 0.314483 0.753052 0.702417 0.753052L2.6429 0.753052C3.24211 0.753052 3.79738 1.06694 4.10567 1.57992L5.31854 3.59812L4.11391 4.31973L2.90104 2.30154C2.84663 2.21101 2.74864 2.15562 2.6429 2.15562L0.702417 2.15562C0.314483 2.15562 4.25466e-09 1.84165 2.7409e-09 1.45434Z" fill="white"/>
<path d="M17.2608 16.9828C17.2608 17.5361 16.8115 17.9846 16.2574 17.9846C15.7032 17.9846 15.2539 17.5361 15.2539 16.9828C15.2539 16.4295 15.7032 15.981 16.2574 15.981C16.8115 15.981 17.2608 16.4295 17.2608 16.9828Z" fill="white"/>
<path d="M10.2354 16.9828C10.2354 17.5361 9.78615 17.9847 9.23196 17.9847C8.67777 17.9847 8.22852 17.5361 8.22852 16.9828C8.22852 16.4295 8.67777 15.981 9.23196 15.981C9.78615 15.981 10.2354 16.4295 10.2354 16.9828Z" fill="white"/>
<path fill-rule="evenodd" clip-rule="evenodd" d="M16.7578 8.16669C16.7578 8.55398 16.4433 8.86795 16.0554 8.86795L13.4465 8.86795C13.0585 8.86795 12.744 8.55398 12.744 8.16669C12.744 7.77939 13.0585 7.46542 13.4465 7.46542L16.0554 7.46542C16.4433 7.46542 16.7578 7.77939 16.7578 8.16669Z" fill="white"/>
</svg>
