<svg width="24" height="26" viewBox="0 0 24 26" fill="none" xmlns="http://www.w3.org/2000/svg">
<path d="M7.18686 20.9614C5.89272 20.9614 4.84564 22.0204 4.84564 23.3147C4.84564 24.609 5.89272 25.668 7.18686 25.668C8.48099 25.668 9.53983 24.609 9.53983 23.3147C9.53983 22.0204 8.48099 20.9614 7.18686 20.9614ZM0.12793 2.13477V4.48809H2.4809L6.71626 13.419L5.128 16.3018C4.93976 16.6313 4.83388 17.0196 4.83388 17.4314C4.83388 18.7257 5.89272 19.7847 7.18686 19.7847H21.3047V17.4314H7.68098C7.51627 17.4314 7.38686 17.302 7.38686 17.1372L7.42215 16.996L8.48099 15.0781H17.2458C18.1282 15.0781 18.9047 14.5956 19.3047 13.8661L23.5165 6.22955C23.6106 6.06482 23.6577 5.86479 23.6577 5.66476C23.6577 5.01759 23.1283 4.48809 22.4812 4.48809H5.08094L3.97504 2.13477H0.12793ZM18.9517 20.9614C17.6576 20.9614 16.6105 22.0204 16.6105 23.3147C16.6105 24.609 17.6576 25.668 18.9517 25.668C20.2459 25.668 21.3047 24.609 21.3047 23.3147C21.3047 22.0204 20.2459 20.9614 18.9517 20.9614Z" fill="black"/>
<path d="M14.3721 8.56641H16.9697V10.084H14.3721V13.0439H12.7588V10.084H10.1475V8.56641H12.7588V5.79785H14.3721V8.56641Z" fill="white"/>
</svg>
