<svg width="22" height="27" viewBox="0 0 22 27" fill="none" xmlns="http://www.w3.org/2000/svg">
<path d="M0.900391 4.11721C0.900391 3.28167 1.23231 2.48035 1.82313 1.88953C2.41394 1.29871 3.21527 0.966797 4.05081 0.966797H18.5427C18.9564 0.966797 19.3661 1.04828 19.7483 1.20661C20.1306 1.36493 20.4779 1.59699 20.7704 1.88953C21.063 2.18208 21.295 2.52938 21.4533 2.9116C21.6117 3.29383 21.6931 3.7035 21.6931 4.11721V22.0746C21.6931 22.3253 21.5936 22.5657 21.4163 22.7429C21.2391 22.9201 20.9987 23.0197 20.748 23.0197H2.79064C2.79064 23.3539 2.92341 23.6745 3.15974 23.9108C3.39606 24.1471 3.71659 24.2799 4.05081 24.2799H20.748C20.9987 24.2799 21.2391 24.3795 21.4163 24.5567C21.5936 24.734 21.6931 24.9743 21.6931 25.225C21.6931 25.4757 21.5936 25.7161 21.4163 25.8933C21.2391 26.0706 20.9987 26.1701 20.748 26.1701H4.05081C3.21527 26.1701 2.41394 25.8382 1.82313 25.2474C1.23231 24.6566 0.900391 23.8553 0.900391 23.0197V4.11721ZM11.2968 8.5278C11.631 8.5278 11.9515 8.39503 12.1878 8.1587C12.4242 7.92238 12.5569 7.60185 12.5569 7.26763C12.5569 6.93341 12.4242 6.61289 12.1878 6.37656C11.9515 6.14023 11.631 6.00746 11.2968 6.00746C10.9626 6.00746 10.642 6.14023 10.4057 6.37656C10.1694 6.61289 10.0366 6.93341 10.0366 7.26763C10.0366 7.60185 10.1694 7.92238 10.4057 8.1587C10.642 8.39503 10.9626 8.5278 11.2968 8.5278ZM10.3516 10.7331V17.0339C10.3516 17.2846 10.4512 17.525 10.6285 17.7022C10.8057 17.8795 11.0461 17.9791 11.2968 17.9791C11.5474 17.9791 11.7878 17.8795 11.9651 17.7022C12.1423 17.525 12.2419 17.2846 12.2419 17.0339V10.7331C12.2419 10.4824 12.1423 10.242 11.9651 10.0648C11.7878 9.88754 11.5474 9.78797 11.2968 9.78797C11.0461 9.78797 10.8057 9.88754 10.6285 10.0648C10.4512 10.242 10.3516 10.4824 10.3516 10.7331Z" fill="black" fill-opacity="0.6"/>
</svg>
