<svg width="32" height="32" viewBox="0 0 32 32" fill="none" xmlns="http://www.w3.org/2000/svg">
<path d="M9.6281 25.2213C7.93761 25.2213 6.56985 26.6045 6.56985 28.295C6.56985 29.9854 7.93761 31.3686 9.6281 31.3686C11.3186 31.3686 12.7017 29.9854 12.7017 28.295C12.7017 26.6045 11.3186 25.2213 9.6281 25.2213ZM0.407227 0.632324V3.70595H3.48085L9.01338 15.3704L6.93868 19.1355C6.69279 19.5659 6.55448 20.073 6.55448 20.6109C6.55448 22.3014 7.93761 23.6845 9.6281 23.6845H28.0699V20.6109H10.2736C10.0584 20.6109 9.88936 20.4418 9.88936 20.2267L9.93546 20.0423L11.3186 17.5373H22.7678C23.9205 17.5373 24.9348 16.9072 25.4573 15.9543L30.9591 5.98043C31.082 5.76528 31.1435 5.50402 31.1435 5.24276C31.1435 4.39751 30.4519 3.70595 29.6067 3.70595H6.87721L5.4326 0.632324H0.407227ZM24.9962 25.2213C23.3057 25.2213 21.938 26.6045 21.938 28.295C21.938 29.9854 23.3057 31.3686 24.9962 31.3686C26.6867 31.3686 28.0699 29.9854 28.0699 28.295C28.0699 26.6045 26.6867 25.2213 24.9962 25.2213Z" fill="black"/>
</svg>
