<svg width="26" height="27" viewBox="0 0 26 27" fill="none" xmlns="http://www.w3.org/2000/svg">
<path d="M24.1385 0.966797H5.23598C4.56755 0.966797 3.92649 1.23233 3.45384 1.70499C2.98118 2.17764 2.71565 2.8187 2.71565 3.48713V7.26763H0.195312V9.78797H2.71565V12.3083H0.195312V14.8286H2.71565V17.349H0.195312V19.8693H2.71565V23.6498C2.71565 24.3182 2.98118 24.9593 3.45384 25.4319C3.92649 25.9046 4.56755 26.1701 5.23598 26.1701H24.1385C24.4727 26.1701 24.7932 26.0374 25.0296 25.801C25.2659 25.5647 25.3987 25.2442 25.3987 24.91V2.22696C25.3987 1.89275 25.2659 1.57222 25.0296 1.33589C24.7932 1.09956 24.4727 0.966797 24.1385 0.966797ZM14.0571 4.74604C16.1339 4.74604 17.8377 6.44852 17.8377 8.52654C17.834 9.52818 17.4346 10.4878 16.7264 11.1962C16.0183 11.9046 15.0588 12.3043 14.0571 12.3083C11.9817 12.3083 10.2766 10.6033 10.2766 8.52654C10.2766 6.44852 11.9817 4.74604 14.0571 4.74604ZM21.6182 21.1295H6.49615V20.1843C6.49615 17.388 9.9049 14.5136 14.0571 14.5136C18.2094 14.5136 21.6182 17.388 21.6182 20.1843V21.1295Z" fill="black" fill-opacity="0.6"/>
</svg>
