<svg width="44" height="44" viewBox="0 0 44 44" fill="none" xmlns="http://www.w3.org/2000/svg">
<path d="M32.7584 43.6173H25.4359L22.0922 42.5096L18.7725 43.6173H11.414C5.37383 43.6173 0.472168 38.693 0.472168 32.6248V11.1817C0.472168 5.11355 5.37383 0.189209 11.414 0.189209H32.7584C38.7986 0.189209 43.7002 5.11355 43.7002 11.1817V32.6248C43.7002 38.693 38.7986 43.6173 32.7584 43.6173Z" fill="#337FFF"/>
<path d="M18.7485 17.1774V21.8971H13.3315V28.0977H18.7485V43.6051H25.4239V28.0977H30.3975L31.3442 21.8971H25.4239V17.8757C25.4239 16.1781 26.2508 14.5286 28.8994 14.5286H31.5959V9.25514C31.5959 9.25514 29.1511 8.83374 26.8141 8.83374C21.9364 8.83374 18.7485 11.7956 18.7485 17.1774Z" fill="white"/>
</svg>
