<svg width="70" height="60" viewBox="0 0 70 60" fill="none" xmlns="http://www.w3.org/2000/svg">
<path d="M39.3298 8.61142C33.4557 8.61142 28.675 13.3921 28.675 19.2662C28.675 25.1402 33.4557 29.9209 39.3298 29.9209C45.2039 29.9209 49.9845 25.1402 49.9845 19.2662C49.9845 13.3921 45.2099 8.61142 39.3298 8.61142ZM41.14 25.3832H38.5522V18.3064L38.5765 17.1462L38.6191 15.8766C38.1878 16.3079 37.8901 16.5873 37.7261 16.7209L36.3229 17.8508L35.0776 16.2957L39.02 13.1613H41.1461V25.3832H41.14Z" fill="url(#paint0_linear)"/>
<path d="M39.3298 4.94241C31.4147 4.94241 25 11.3571 25 19.2722C25 27.1874 31.4147 33.6021 39.3298 33.6021C47.2449 33.6021 53.6596 27.1874 53.6596 19.2722C53.6596 11.3571 47.2449 4.94241 39.3298 4.94241ZM39.3298 31.968C32.332 31.968 26.634 26.2701 26.634 19.2722C26.634 12.2744 32.332 6.57645 39.3298 6.57645C46.3277 6.57645 52.0256 12.2744 52.0256 19.2722C52.0256 26.2701 46.3338 31.968 39.3298 31.968Z" fill="url(#paint1_linear)"/>
<path d="M50.0057 38.8201C50.036 38.7837 51.7612 36.4693 53.9845 34.7441C53.7233 34.6105 53.377 34.5011 52.9336 34.5011C52.4416 34.5011 51.8888 34.6347 51.2996 34.8899C50.1818 35.3758 49.3679 36.3417 48.3352 37.5627C47.746 38.2552 47.0838 39.0388 46.2698 39.8406C45.1825 40.9097 43.5727 41.8756 41.4892 42.7139C40.8271 42.9812 40.1224 43.2363 39.3752 43.4671C39.3874 43.4671 39.4056 43.4732 39.4178 43.4732C40.1103 43.5522 40.8088 43.6251 41.5013 43.6919C41.5317 43.6979 41.5681 43.698 41.5985 43.704C42.5644 43.3882 43.3176 43.0966 43.8461 42.8475C45.3647 42.1186 47.9343 40.3873 50.0057 38.8201Z" fill="url(#paint2_linear)"/>
<path d="M56.6391 37.757C58.1396 36.5178 59.7979 35.1571 61.5109 34.4403C60.5025 33.7843 59.4031 33.7114 58.012 34.1731C56.6877 34.6044 55.8859 35.2543 52.2959 38.2491C50.1272 40.0532 46.2942 42.7503 44.2593 43.7283C44.1499 43.783 44.0284 43.8377 43.8948 43.8923C44.0223 43.8984 44.1438 43.9105 44.2653 43.9166C44.3625 43.9227 44.4658 43.9288 44.563 43.9348C44.8242 43.947 45.0793 43.9591 45.3162 43.9713C45.5835 43.9834 45.8508 43.9834 46.1241 43.9774C46.2153 43.9774 46.3064 43.9652 46.3975 43.9652C46.5858 43.9591 46.7741 43.9531 46.9685 43.9348C47.0778 43.9288 47.1932 43.9105 47.3087 43.9045C47.4909 43.8862 47.6671 43.8741 47.8493 43.8498C47.9708 43.8376 48.0984 43.8134 48.2198 43.7951C48.3839 43.7708 48.5479 43.7526 48.718 43.7222C50.5342 42.5802 54.3187 39.6341 55.649 38.5771C55.9649 38.3159 56.299 38.0425 56.6391 37.757Z" fill="url(#paint3_linear)"/>
<path d="M57.2586 38.5042C56.9124 38.7897 56.5783 39.0631 56.2503 39.3243C56.2138 39.3547 53.5228 41.4929 51.2388 43.1513C51.3238 43.127 51.4089 43.1026 51.4939 43.0844C51.5486 43.0723 51.6032 43.0541 51.6518 43.0419C52.071 42.9204 52.4901 42.7929 52.891 42.6592C52.9214 42.6471 52.9518 42.641 52.9822 42.6288C53.1583 42.5742 53.3284 42.5134 53.4985 42.4527C53.5349 42.4405 53.5653 42.4284 53.6018 42.4162C53.784 42.3555 53.9602 42.2887 54.1363 42.2279C54.1485 42.2218 54.1606 42.2218 54.1667 42.2158C54.5555 42.0761 54.9321 41.9303 55.2844 41.7905C55.2966 41.7845 55.3087 41.7784 55.3209 41.7784C55.4849 41.7116 55.6428 41.6508 55.8007 41.584C55.8129 41.5779 55.8311 41.5719 55.8433 41.5658C56.3353 41.3653 56.7787 41.177 57.1614 41.0069C57.1797 41.0009 57.1979 40.9948 57.21 40.9826C57.3194 40.934 57.4287 40.8854 57.5259 40.8429C57.5381 40.8368 57.5502 40.8308 57.5684 40.8247C57.6778 40.7761 57.775 40.7336 57.8722 40.6911C58.7712 40.2901 59.7674 39.5369 60.9155 38.6622C62.2337 37.6599 63.7159 36.5361 65.4046 35.6917C64.9247 35.1815 64.214 34.9263 63.2663 34.9263C61.2739 35.1997 59.1357 36.9552 57.2586 38.5042Z" fill="url(#paint4_linear)"/>
<path d="M67.2269 36.1109C66.9717 36.1109 66.7227 36.1595 66.4858 36.2627C64.6087 37.0767 62.9565 38.3341 61.4986 39.4397C60.2958 40.3509 59.2571 41.1406 58.2608 41.584C56.645 42.3008 52.8606 43.9835 48.9729 44.6517C47.843 44.84 46.78 44.9372 45.8081 44.9372C45.6319 44.9372 45.4557 44.9372 45.2796 44.925C44.2348 44.8886 42.9652 44.8035 41.6045 44.676C40.0312 44.5302 38.3971 44.3419 36.8785 44.1232C30.6278 43.2242 30.0325 42.4041 29.8381 42.1368C29.5526 41.748 29.6376 41.4382 29.7166 41.2864C29.9535 40.8247 30.5974 40.764 31.1927 40.764C32.5716 40.764 34.6795 41.1831 34.7706 41.2013L34.8253 41.2135C34.8435 41.2196 36.6112 41.7784 38.4761 41.7784C39.4419 41.7784 40.262 41.6326 40.912 41.341C41.0699 41.2681 41.2279 41.1831 41.3797 41.092C41.9507 40.7275 42.6007 40.1565 42.4488 39.5126C42.3395 39.0449 41.8535 38.7047 41.6652 38.6804C41.3433 38.6379 40.2985 38.401 38.4822 37.9818C36.4776 37.5202 33.987 36.9431 32.3894 36.6394C31.8731 36.5422 31.3203 36.4207 30.7311 36.2931C28.8723 35.8861 26.7705 35.4305 24.4925 35.4305C23.4295 35.4305 22.4454 35.5277 21.4735 35.7282L20.866 35.8557C16.7839 36.694 12.9327 37.4837 9.92579 42.641C9.48235 43.4003 9.14217 44.2021 8.78377 45.0465C8.19454 46.4315 7.58102 47.8651 6.48153 49.1407C5.83763 49.8879 4.78673 50.8052 3.68117 51.7832C2.25365 53.0345 0.115416 54.9116 0 55.6405C0.352323 55.9989 2.6242 57.1409 6.76703 56.6124C17.5129 55.2396 19.7726 52.1719 28.7811 52.178C29.6619 52.178 30.5853 52.2205 31.5268 52.2205C38.5125 52.2205 55.6731 51.3276 64.2382 43.0723C65.769 41.5962 68.6908 38.3645 69.6263 37.3197C69.1768 36.8763 68.2352 36.1109 67.2269 36.1109Z" fill="url(#paint5_linear)"/>
<defs>
<linearGradient id="paint0_linear" x1="49.9872" y1="19.2702" x2="28.6751" y2="19.2702" gradientUnits="userSpaceOnUse">
<stop stop-color="#F39C12"/>
<stop offset="1" stop-color="#F1C40F"/>
</linearGradient>
<linearGradient id="paint1_linear" x1="53.6587" y1="19.2702" x2="25.0037" y2="19.2702" gradientUnits="userSpaceOnUse">
<stop stop-color="#F39C12"/>
<stop offset="1" stop-color="#F1C40F"/>
</linearGradient>
<linearGradient id="paint2_linear" x1="39.3712" y1="39.1038" x2="53.983" y2="39.1038" gradientUnits="userSpaceOnUse">
<stop stop-color="#F39C12"/>
<stop offset="1" stop-color="#FF4B2D"/>
</linearGradient>
<linearGradient id="paint3_linear" x1="43.899" y1="38.9237" x2="61.513" y2="38.9237" gradientUnits="userSpaceOnUse">
<stop stop-color="#F39C12"/>
<stop offset="1" stop-color="#FF4B2D"/>
</linearGradient>
<linearGradient id="paint4_linear" x1="51.2375" y1="39.0416" x2="65.4008" y2="39.0416" gradientUnits="userSpaceOnUse">
<stop stop-color="#F39C12"/>
<stop offset="1" stop-color="#FF4B2D"/>
</linearGradient>
<linearGradient id="paint5_linear" x1="0.0025513" y1="46.0851" x2="69.6316" y2="46.0851" gradientUnits="userSpaceOnUse">
<stop stop-color="#F39C12"/>
<stop offset="1" stop-color="#FF4B2D"/>
</linearGradient>
</defs>
</svg>
