<svg width="44" height="44" viewBox="0 0 44 44" fill="none" xmlns="http://www.w3.org/2000/svg">
<rect x="0.156494" y="0.189209" width="43.2281" height="43.5" rx="9" fill="#DB0C0B"/>
<path d="M17.1555 31.5505C11.8553 31.5505 7.54419 27.2394 7.54419 21.9392C7.54419 16.639 11.8553 12.3279 17.1555 12.3279C19.5767 12.3279 21.7777 13.1731 23.5269 14.7784L21.0206 17.1908C20.2898 16.5099 19.0396 15.7293 17.1555 15.7293C13.7923 15.7293 11.0542 18.5143 11.0542 21.9421C11.0542 25.3699 13.7923 28.155 17.1555 28.155C20.8856 28.155 22.4058 25.5783 22.7139 24.0581L22.7668 23.7969H17.2435V20.642H26.2415C26.3149 21.0705 26.3794 21.5459 26.3794 22.1622C26.3794 27.6884 22.5848 31.5505 17.1555 31.5505Z" fill="white"/>
<path d="M30.632 26.007V23.2366H27.8586V20.6422H30.632V17.8689H33.2263V20.6422H35.9967V23.2366H33.2263V26.007H30.632Z" fill="white"/>
</svg>
