<svg width="22" height="25" viewBox="0 0 22 25" fill="none" xmlns="http://www.w3.org/2000/svg">
<path d="M20.0072 12.0622C19.6736 10.7866 18.942 9.40618 18.0298 8.05043L19.6644 6.64537L17.9379 4.61173L16.4349 5.90586C13.9065 2.77529 11.0413 0.236328 11.0413 0.236328C11.0413 0.236328 8.1486 2.79686 5.61403 5.94284L4.06512 4.61173L2.33867 6.64537L4.02226 8.09356C3.1223 9.437 2.40295 10.802 2.07235 12.0622H0V14.7368H1.96828C2.17643 16.2312 2.73967 17.6116 3.57228 18.7886L2.31724 20.052L4.19674 21.9439L5.41199 20.7206C6.64255 21.6881 8.12717 22.3475 9.74955 22.5755V24.2363H12.4066V22.5663C13.98 22.329 15.4217 21.6912 16.6247 20.7545L17.8063 21.9439L19.6858 20.052L18.4767 18.8349C19.3246 17.6486 19.9032 16.2528 20.1144 14.7368H22V12.0622H20.0072ZM11.0015 20.7607C7.11702 20.7607 3.96716 17.59 3.96716 13.6799C3.96716 9.76977 11.0015 3.54253 11.0015 3.54253C11.0015 3.54253 18.0359 9.76977 18.0359 13.6799C18.0359 17.59 14.886 20.7607 11.0015 20.7607Z" fill="url(#paint0_linear)"/>
<defs>
<linearGradient id="paint0_linear" x1="4.10188" y1="22.0436" x2="16.7071" y2="6.39031" gradientUnits="userSpaceOnUse">
<stop stop-color="#09A3FA"/>
<stop offset="1" stop-color="#0DDFFA"/>
</linearGradient>
</defs>
</svg>
