<svg width="44" height="44" viewBox="0 0 44 44" fill="none" xmlns="http://www.w3.org/2000/svg">
<path d="M32.9864 43.6053H11.642C5.60185 43.6053 0.700195 38.693 0.700195 32.6128V11.1817C0.700195 5.11355 5.60185 0.189209 11.642 0.189209H32.9864C39.0266 0.189209 43.9283 5.11355 43.9283 11.1817V32.6248C43.9283 38.693 39.0266 43.6053 32.9864 43.6053Z" fill="url(#paint0_linear)"/>
<path d="M28.9355 13.8545C28.1205 13.8545 27.4734 14.5167 27.4734 15.3234C27.4734 16.13 28.1325 16.7922 28.9355 16.7922C29.7504 16.7922 30.3976 16.13 30.3976 15.3234C30.3976 14.5167 29.7504 13.8545 28.9355 13.8545Z" fill="white"/>
<path d="M22.4161 15.7449C19.0125 15.7449 16.2561 18.5261 16.2561 21.9334C16.2561 25.3527 19.0245 28.1219 22.4161 28.1219C25.8197 28.1219 28.5762 25.3407 28.5762 21.9334C28.5762 18.5261 25.8077 15.7449 22.4161 15.7449ZM22.4161 25.9066C20.235 25.9066 18.4732 24.1247 18.4732 21.9454C18.4732 19.7542 20.2469 17.9843 22.4161 17.9843C24.5973 17.9843 26.359 19.7662 26.359 21.9454C26.359 24.1247 24.5973 25.9066 22.4161 25.9066Z" fill="white"/>
<path d="M27.3057 34.5152H17.3107C13.164 34.5152 9.79639 31.1319 9.79639 26.9661V16.9248C9.79639 12.759 13.164 9.37573 17.3107 9.37573H27.3057C31.4524 9.37573 34.82 12.759 34.82 16.9248V26.9661C34.832 31.1319 31.4524 34.5152 27.3057 34.5152ZM17.3107 11.7356C14.4584 11.7356 12.1453 14.0593 12.1453 16.9248V26.9661C12.1453 29.8316 14.4584 32.1553 17.3107 32.1553H27.3057C30.158 32.1553 32.471 29.8316 32.471 26.9661V16.9248C32.471 14.0593 30.158 11.7356 27.3057 11.7356H17.3107Z" fill="white"/>
<defs>
<linearGradient id="paint0_linear" x1="0.228365" y1="-0.287693" x2="42.8247" y2="42.1123" gradientUnits="userSpaceOnUse">
<stop offset="0.0011048" stop-color="#FBE18A"/>
<stop offset="0.2094" stop-color="#FCBB45"/>
<stop offset="0.3765" stop-color="#F75274"/>
<stop offset="0.5238" stop-color="#D53692"/>
<stop offset="0.7394" stop-color="#8F39CE"/>
<stop offset="1" stop-color="#5B4FE9"/>
</linearGradient>
</defs>
</svg>
