<svg width="20" height="29" viewBox="0 0 20 29" fill="none" xmlns="http://www.w3.org/2000/svg">
<path d="M19.1029 8.02363L12.336 1.2568C12.1427 1.06347 11.9494 0.966797 11.6594 0.966797H1.99246C0.929102 0.966797 0.059082 1.83682 0.059082 2.90018V26.1007C0.059082 27.1641 0.929102 28.0341 1.99246 28.0341H17.4595C18.5228 28.0341 19.3929 27.1641 19.3929 26.1007V8.70031C19.3929 8.4103 19.2962 8.21697 19.1029 8.02363ZM11.6594 3.28685L17.0728 8.70031H11.6594V3.28685ZM17.4595 26.1007H1.99246V2.90018H9.72597V8.70031C9.72597 9.76367 10.596 10.6337 11.6594 10.6337H17.4595V26.1007Z" fill="black" fill-opacity="0.6"/>
<path d="M3.92578 20.3008H15.5261V22.2342H3.92578V20.3008Z" fill="black" fill-opacity="0.6"/>
<path d="M3.92578 14.5H15.5261V16.4334H3.92578V14.5Z" fill="black" fill-opacity="0.6"/>
</svg>
