<svg width="71" height="60" viewBox="0 0 71 60" fill="none" xmlns="http://www.w3.org/2000/svg">
<path d="M50.5347 41.0927C50.5651 41.0562 52.2903 38.7418 54.5136 37.0167C54.2523 36.883 53.9061 36.7737 53.4627 36.7737C52.9706 36.7737 52.4178 36.9073 51.8286 37.1625C50.7109 37.6484 49.8969 38.6143 48.8642 39.8353C48.275 40.5277 47.6129 41.3114 46.7989 42.1132C45.7116 43.1823 44.1018 44.1482 42.0182 44.9864C41.3561 45.2537 40.6515 45.5089 39.9043 45.7397C39.9164 45.7397 39.9347 45.7397 39.9468 45.7458C40.6393 45.8247 41.3379 45.8976 42.0304 45.9645C42.0608 45.9645 42.0972 45.9705 42.1276 45.9766C43.0934 45.6607 43.8467 45.3691 44.3752 45.1201C45.8938 44.3911 48.4633 42.6599 50.5347 41.0927Z" fill="#F5815A"/>
<path d="M57.168 40.0356C58.6684 38.7964 60.3267 37.4357 62.0397 36.7189C61.0314 36.0629 59.9319 35.99 58.5408 36.4517C57.2165 36.883 56.4147 37.5329 52.8247 40.5277C50.6561 42.3318 46.823 45.0289 44.7881 46.0069C44.6787 46.0616 44.5572 46.1162 44.4236 46.1709C44.5511 46.177 44.6726 46.1891 44.7941 46.1952C44.8913 46.2013 44.9946 46.2074 45.0918 46.2134C45.353 46.2256 45.6081 46.2377 45.845 46.2499C46.1123 46.262 46.3796 46.262 46.6529 46.256C46.7441 46.256 46.8352 46.2438 46.9263 46.2438C47.1146 46.2377 47.3029 46.2317 47.4973 46.2134C47.6066 46.2074 47.7221 46.1891 47.8375 46.1831C48.0197 46.1648 48.1959 46.1527 48.3781 46.1284C48.4996 46.1162 48.6272 46.0919 48.7487 46.0737C48.9127 46.0494 49.0767 46.0312 49.2468 46.0008C51.063 44.8588 54.8475 41.9127 56.1778 40.8557C56.4937 40.5884 56.8278 40.3151 57.168 40.0356Z" fill="#F5815A"/>
<path d="M57.7877 40.7828C57.4414 41.0683 57.1073 41.3417 56.7793 41.6029C56.7429 41.6333 54.0518 43.7715 51.7678 45.4298C51.8529 45.4055 51.9379 45.3813 52.023 45.363C52.0776 45.3509 52.1323 45.3327 52.1809 45.3205C52.6 45.199 53.0192 45.0714 53.4201 44.9378C53.4505 44.9257 53.4808 44.9196 53.5112 44.9074C53.6874 44.8528 53.8575 44.792 54.0275 44.7313C54.064 44.7191 54.0944 44.707 54.1308 44.6948C54.3131 44.6341 54.4892 44.5673 54.6654 44.5065C54.6775 44.5004 54.6897 44.5004 54.6957 44.4944C55.0845 44.3546 55.4611 44.2089 55.8135 44.0692C55.8256 44.0631 55.8378 44.0631 55.8499 44.057C56.0139 43.9902 56.1719 43.9294 56.3298 43.8626C56.3419 43.8565 56.3602 43.8505 56.3723 43.8444C56.8644 43.6439 57.3078 43.4556 57.6905 43.2916C57.7087 43.2855 57.7269 43.2795 57.7391 43.2673C57.8484 43.2187 57.9578 43.1701 58.055 43.1276C58.0671 43.1215 58.0793 43.1154 58.0975 43.1094C58.2068 43.0608 58.304 43.0182 58.4012 42.9757C59.3002 42.5748 60.2965 41.8216 61.4445 40.9468C62.7627 39.9445 64.2449 38.8208 65.9336 37.9764C65.4537 37.4661 64.743 37.211 63.7954 37.211C61.8029 37.4783 59.6708 39.2338 57.7877 40.7828Z" fill="#F5815A"/>
<path d="M67.762 38.3833C67.5069 38.3833 67.2578 38.4319 67.0209 38.5352C65.1439 39.3492 63.4916 40.6066 62.0337 41.7122C60.831 42.6234 59.7922 43.4131 58.796 43.8565C57.1802 44.5733 53.3957 46.2559 49.508 46.9241C48.3782 47.1124 47.3151 47.2096 46.3432 47.2096C46.167 47.2096 45.9909 47.2097 45.8147 47.1975C44.7699 47.1611 43.5003 47.076 42.1396 46.9484C40.5663 46.8027 38.9323 46.6143 37.4136 46.3957C31.163 45.4966 30.5676 44.6766 30.3733 44.4093C30.0878 44.0205 30.1728 43.7107 30.2518 43.5589C30.4887 43.0972 31.1326 43.0364 31.7279 43.0364C33.1068 43.0364 35.2147 43.4556 35.3058 43.4738L35.3605 43.486C35.3787 43.492 37.1464 44.0509 39.0112 44.0509C39.9771 44.0509 40.7972 43.9051 41.4471 43.6135C41.6051 43.5406 41.763 43.4556 41.9149 43.3645C42.4859 43 43.1359 42.429 42.984 41.7851C42.8746 41.3113 42.3887 40.9772 42.2004 40.9529C41.8784 40.9104 40.8336 40.6735 39.0173 40.2543C37.0127 39.7926 34.5222 39.2156 32.9246 38.9118C32.4082 38.8146 31.8554 38.6932 31.2662 38.5656C29.4074 38.1586 27.3056 37.703 25.0277 37.703C23.9646 37.703 22.9806 37.8002 22.0086 38.0006L21.4012 38.1282C17.3191 38.9665 13.4678 39.7562 10.4609 44.9135C10.0175 45.6728 9.67733 46.4746 9.31893 47.319C8.7297 48.704 8.11617 50.1376 7.01668 51.4132C6.37278 52.1604 5.32189 53.0776 4.21632 54.0496C2.78881 55.3009 0.650572 57.178 0.535156 57.9069C0.887479 58.2653 3.15935 59.4073 7.30219 58.8788C18.048 57.506 20.3078 54.4383 29.3163 54.4444C30.1971 54.4444 31.1204 54.4869 32.062 54.4869C39.0477 54.4869 56.2082 53.594 64.7733 45.3387C66.3041 43.8626 69.226 40.6309 70.1615 39.5861C69.7059 39.1487 68.7643 38.3833 67.762 38.3833Z" fill="#F5815A"/>
<path d="M34.5626 17.3048H23.9771V33.0985H34.5626V17.3048Z" fill="url(#paint0_linear)"/>
<path d="M46.7262 17.3048H36.1406V33.0985H46.7262V17.3048Z" fill="url(#paint1_linear)"/>
<path d="M48.0583 9.02863H39.1542C38.3298 9.17603 37.3417 9.32341 36.1406 9.49265V16.4041H46.7262H48.0637V9.02863H48.0583Z" fill="url(#paint2_linear)"/>
<path d="M34.5573 9.70548L34.4699 9.71639L34.4972 9.53078C33.1542 9.34517 32.0624 9.18139 31.1725 9.02307H22.6396V16.3986H23.9772H34.5627V9.70548H34.5573Z" fill="url(#paint3_linear)"/>
<path d="M36.1405 8.88114V9.49258C37.347 9.32334 38.3351 9.17595 39.154 9.02855C41.4414 8.62457 42.4514 8.25334 43.2867 7.64736C44.0728 7.07959 43.9745 5.72568 43.6579 4.74301C43.1884 3.2963 42.0037 1.74585 40.0984 1.74585C39.7873 1.74585 39.4706 1.78953 39.1485 1.87142C36.9648 2.4501 35.7801 4.73754 35.1687 6.56095C35.5454 7.6801 35.7037 8.61364 35.7419 8.88114H36.1405ZM39.4488 3.01787C39.6726 2.95782 39.8855 2.93052 40.093 2.93052C41.3159 2.93052 42.1293 3.99508 42.4896 4.98867C42.8335 5.94404 42.6971 6.60463 42.5933 6.69198C41.6489 7.37439 40.224 7.73469 35.9002 8.33521C36.2333 6.82845 37.2105 3.60748 39.4488 3.01787Z" fill="url(#paint4_linear)"/>
<path d="M34.4697 9.71678L34.5572 9.70584V9.54177C34.5354 9.5363 34.5135 9.53629 34.4971 9.53082L34.4697 9.71678Z" fill="url(#paint5_linear)"/>
<path d="M34.5571 9.54173V8.88114H35.7363C35.6981 8.6191 35.5398 7.6801 35.1631 6.56095C34.5517 4.73754 33.3615 2.4501 31.1833 1.87142C30.8612 1.78407 30.5446 1.74585 30.2334 1.74585C28.3281 1.74585 27.1434 3.29084 26.6739 4.74301C26.3518 5.72568 26.259 7.07959 27.0397 7.64735C27.875 8.25334 28.8849 8.62457 31.1724 9.02855C32.0622 9.18687 33.1541 9.35065 34.4971 9.53626C34.5189 9.53626 34.5353 9.53627 34.5571 9.54173ZM27.8367 4.98867C28.1916 3.98962 29.0105 2.93052 30.2334 2.93052C30.4408 2.93052 30.6592 2.95782 30.8776 3.01787C33.1159 3.60748 34.0876 6.82845 34.4261 8.33521C30.1024 7.74015 28.672 7.37985 27.733 6.69198C27.6238 6.59917 27.4928 5.94404 27.8367 4.98867Z" fill="url(#paint6_linear)"/>
<defs>
<linearGradient id="paint0_linear" x1="34.5586" y1="25.2031" x2="23.9756" y2="25.2031" gradientUnits="userSpaceOnUse">
<stop stop-color="#F39C12"/>
<stop offset="1" stop-color="#F1C40F"/>
</linearGradient>
<linearGradient id="paint1_linear" x1="46.7233" y1="25.2031" x2="36.1388" y2="25.2031" gradientUnits="userSpaceOnUse">
<stop stop-color="#F39C12"/>
<stop offset="1" stop-color="#F1C40F"/>
</linearGradient>
<linearGradient id="paint2_linear" x1="48.0594" y1="12.7148" x2="36.1388" y2="12.7148" gradientUnits="userSpaceOnUse">
<stop stop-color="#F39C12"/>
<stop offset="1" stop-color="#F1C40F"/>
</linearGradient>
<linearGradient id="paint3_linear" x1="34.5587" y1="12.7147" x2="22.6378" y2="12.7147" gradientUnits="userSpaceOnUse">
<stop stop-color="#F39C12"/>
<stop offset="1" stop-color="#F1C40F"/>
</linearGradient>
<linearGradient id="paint4_linear" x1="43.8894" y1="5.61823" x2="35.1625" y2="5.61823" gradientUnits="userSpaceOnUse">
<stop stop-color="#F39C12"/>
<stop offset="1" stop-color="#F1C40F"/>
</linearGradient>
<linearGradient id="paint5_linear" x1="34.5587" y1="9.62511" x2="34.4711" y2="9.62511" gradientUnits="userSpaceOnUse">
<stop stop-color="#F39C12"/>
<stop offset="1" stop-color="#F1C40F"/>
</linearGradient>
<linearGradient id="paint6_linear" x1="35.737" y1="5.64379" x2="26.435" y2="5.64379" gradientUnits="userSpaceOnUse">
<stop stop-color="#F39C12"/>
<stop offset="1" stop-color="#F1C40F"/>
</linearGradient>
</defs>
</svg>
