<svg width="70" height="70" viewBox="0 0 70 70" fill="none" xmlns="http://www.w3.org/2000/svg">
<path fill-rule="evenodd" clip-rule="evenodd" d="M34.7824 69.3936C15.7277 69.3936 0.282471 54.0042 0.282471 35.0183C0.282471 16.0324 15.7277 0.643066 34.7824 0.643066C53.8372 0.643066 69.2824 16.0324 69.2824 35.0183C69.2824 54.0042 53.8372 69.3936 34.7824 69.3936ZM35.3862 50.7557C37.6028 52.2833 40.4145 53.1921 43.4592 53.1921C44.216 53.1921 44.9642 53.1362 45.6995 53.0267C45.9518 53.1298 46.1954 53.2565 46.4952 53.4284C47.142 53.8065 48.0067 54.3866 49.0827 55.1687C49.9646 55.811 51.213 55.1901 51.213 54.1095V50.9706C51.6658 50.6784 52.0928 50.3626 52.496 50.021C54.9326 47.9627 56.3449 45.1483 56.3449 42.1297C56.3449 40.1424 55.7412 38.284 54.6803 36.6791C54.3458 37.8187 53.8927 38.9204 53.3283 39.9662C53.5526 40.6602 53.6712 41.3842 53.6712 42.1297C53.6712 44.3512 52.6189 46.4481 50.7559 48.0208C50.2752 48.4254 49.7576 48.7843 49.2099 49.0928C49.007 49.2071 48.838 49.3728 48.7202 49.5732C48.6024 49.7735 48.54 50.0014 48.5393 50.2337V51.5743C47.2606 50.7579 46.383 50.3733 45.7146 50.3733C45.6394 50.3735 45.5644 50.38 45.4904 50.3927C43.617 50.7048 41.6965 50.5798 39.8798 50.0274C38.4084 50.4082 36.9049 50.6527 35.3883 50.7579L35.3862 50.7557ZM19.2876 44.478C19.9987 45.0774 20.7509 45.6266 21.5388 46.1215V51.4755C21.5388 52.829 23.102 53.6024 24.2039 52.7989C27.2442 50.586 29.3573 49.3356 29.8856 49.211C31.106 49.4044 32.3523 49.501 33.6116 49.501C44.8241 49.501 54.0054 41.7516 54.0054 32.0556C54.0054 22.3575 44.8219 14.608 33.6116 14.608C22.4013 14.608 13.22 22.3575 13.22 32.0535C13.22 36.8015 15.4409 41.2295 19.2876 44.478ZM29.9589 45.9088C28.8743 45.9088 27.2895 46.6715 24.8831 48.2807V45.1934C24.882 44.9028 24.8036 44.6176 24.6559 44.367C24.5082 44.1164 24.2964 43.9093 24.0422 43.7668C23.1285 43.2516 22.2651 42.6525 21.4633 41.9772C18.3303 39.3367 16.5621 35.8047 16.5621 32.0535C16.5621 24.2975 24.1435 17.8994 33.6116 17.8994C43.0818 17.8994 50.661 24.2975 50.661 32.0535C50.661 39.8094 43.0818 46.2096 33.6116 46.2096C32.4688 46.2096 31.3411 46.1151 30.2392 45.9303C30.1465 45.9154 30.0528 45.9082 29.9589 45.9088ZM24.9198 35.347C26.3968 35.347 27.5935 34.1654 27.5935 32.713C27.5935 31.2585 26.3968 30.079 24.9198 30.079C23.4427 30.079 22.246 31.2585 22.246 32.713C22.246 34.1675 23.4427 35.347 24.9198 35.347ZM33.6116 35.347C35.0886 35.347 36.2853 34.1654 36.2853 32.713C36.2853 31.2585 35.0886 30.079 33.6116 30.079C32.1346 30.079 30.9378 31.2585 30.9378 32.713C30.9378 34.1675 32.1346 35.347 33.6116 35.347ZM42.3034 35.347C43.7805 35.347 44.9772 34.1654 44.9772 32.713C44.9772 31.2585 43.7805 30.079 42.3034 30.079C40.8264 30.079 39.6297 31.2585 39.6297 32.713C39.6297 34.1675 40.8264 35.347 42.3034 35.347Z" fill="url(#paint0_radial)"/>
<defs>
<radialGradient id="paint0_radial" cx="0" cy="0" r="1" gradientUnits="userSpaceOnUse" gradientTransform="translate(34.7824 35.0183) rotate(90) scale(34.3753 34.5)">
<stop stop-color="#D82349"/>
<stop offset="1" stop-color="#F28FBB"/>
</radialGradient>
</defs>
</svg>
