<svg width="71" height="60" viewBox="0 0 71 60" fill="none" xmlns="http://www.w3.org/2000/svg">
<path d="M51.9392 16.2411L53.4456 15.0262L39.5107 1.77155L25.5757 15.0262L27.0882 16.2411L39.6625 4.59014L51.9392 16.2411Z" fill="url(#paint0_linear)"/>
<path d="M51.2832 16.642L39.6565 5.60461L27.7444 16.6481V32.5816H51.2832V16.642ZM35.7567 28.7729V21.0036H43.2709V28.7729H35.7567Z" fill="url(#paint1_linear)"/>
<path d="M50.6878 41.256C50.7182 41.2195 52.4433 38.9052 54.6666 37.18C54.4054 37.0464 54.0592 36.937 53.6157 36.937C53.1237 36.937 52.5709 37.0707 51.9817 37.3258C50.864 37.8118 50.05 38.7776 49.0173 39.9986C48.4281 40.6911 47.766 41.4747 46.952 42.2765C45.8646 43.3456 44.2549 44.3115 42.1713 45.1498C41.5092 45.4171 40.8045 45.6722 40.0574 45.903C40.0695 45.903 40.0877 45.903 40.0999 45.9091C40.7924 45.9881 41.491 46.061 42.1835 46.1278C42.2138 46.1278 42.2503 46.1339 42.2807 46.1399C43.2465 45.8241 43.9997 45.5325 44.5282 45.2834C46.0469 44.5545 48.6164 42.8232 50.6878 41.256Z" fill="url(#paint2_linear)"/>
<path d="M57.3213 40.193C58.8217 38.9538 60.48 37.5931 62.1931 36.8763C61.1847 36.2202 60.0852 36.1473 58.6941 36.609C57.3699 37.0403 56.568 37.6903 52.978 40.685C50.8094 42.4891 46.9763 45.1862 44.9414 46.1642C44.832 46.2189 44.7105 46.2736 44.5769 46.3283C44.7045 46.3343 44.826 46.3465 44.9475 46.3525C45.0446 46.3586 45.1479 46.3647 45.2451 46.3708C45.5063 46.3829 45.7614 46.3951 45.9983 46.4072C46.2656 46.4194 46.5329 46.4194 46.8063 46.4133C46.8974 46.4133 46.9885 46.4012 47.0796 46.4012C47.2679 46.3951 47.4562 46.389 47.6506 46.3708C47.76 46.3647 47.8754 46.3465 47.9847 46.3404C48.167 46.3222 48.3431 46.31 48.5254 46.2857C48.6468 46.2736 48.7744 46.2493 48.8959 46.2311C49.0599 46.2068 49.2239 46.1885 49.394 46.1582C51.2103 45.0161 54.9947 42.07 56.3251 41.013C56.647 40.7518 56.9811 40.4785 57.3213 40.193Z" fill="url(#paint3_linear)"/>
<path d="M57.9347 40.9402C57.5884 41.2257 57.2543 41.499 56.9263 41.7602C56.8898 41.7906 54.1988 43.9288 51.9148 45.5872C51.9998 45.5629 52.0849 45.5386 52.1699 45.5204C52.2246 45.5082 52.2793 45.49 52.3279 45.4778C52.747 45.3563 53.1661 45.2288 53.5671 45.0951C53.5974 45.083 53.6278 45.0769 53.6582 45.0648C53.8343 45.0101 54.0044 44.9494 54.1745 44.8886C54.211 44.8765 54.2413 44.8643 54.2778 44.8522C54.46 44.7914 54.6362 44.7246 54.8123 44.6638C54.8245 44.6578 54.8366 44.6578 54.8427 44.6517C55.2315 44.512 55.6081 44.3662 55.9604 44.2265C55.9726 44.2204 55.9847 44.2204 55.9969 44.2143C56.1609 44.1475 56.3188 44.0868 56.4768 44.0199C56.4889 44.0139 56.5071 44.0078 56.5193 44.0017C57.0113 43.8013 57.4548 43.6129 57.8375 43.4489C57.8557 43.4428 57.8739 43.4368 57.8861 43.4246C57.9954 43.376 58.1047 43.3275 58.2019 43.2849C58.2141 43.2789 58.2262 43.2728 58.2445 43.2667C58.3538 43.2181 58.451 43.1756 58.5482 43.1331C59.4472 42.7322 60.4434 41.9789 61.5915 41.1042C62.9097 40.1019 64.3919 38.9781 66.0806 38.1337C65.6007 37.6234 64.89 37.3683 63.9424 37.3683C61.956 37.6356 59.8178 39.3912 57.9347 40.9402Z" fill="url(#paint4_linear)"/>
<path d="M67.909 38.5468C67.6539 38.5468 67.4048 38.5954 67.1679 38.6987C65.2909 39.5127 63.6386 40.7701 62.1807 41.8756C60.9779 42.7868 59.9453 43.5765 58.943 44.0199C57.3271 44.7367 53.5427 46.4194 49.655 47.0876C48.5251 47.2759 47.4621 47.3731 46.4902 47.3731C46.314 47.3731 46.1379 47.3731 45.9617 47.3609C44.9229 47.3245 43.6473 47.2394 42.2866 47.1119C40.7133 46.9661 39.0793 46.7778 37.5606 46.5591C31.3099 45.6601 30.7146 44.84 30.5202 44.5727C30.2347 44.184 30.3198 43.8741 30.3987 43.7223C30.6357 43.2606 31.2796 43.1999 31.8749 43.1999C33.2538 43.1999 35.3616 43.619 35.4528 43.6373L35.5074 43.6494C35.5257 43.6555 37.2933 44.2143 39.1582 44.2143C40.1241 44.2143 40.9441 44.0685 41.5941 43.777C41.752 43.7041 41.91 43.619 42.0618 43.5279C42.6329 43.1634 43.2768 42.5924 43.131 41.9485C43.0216 41.4747 42.5357 41.1406 42.3473 41.1163C42.0254 41.0738 40.9806 40.8369 39.1643 40.4177C37.1597 39.9561 34.6691 39.379 33.0715 39.0753C32.5552 38.9781 31.9963 38.8566 31.4132 38.729C29.5544 38.322 27.4526 37.8665 25.1746 37.8665C24.1116 37.8665 23.1275 37.9636 22.1556 38.1641L21.5481 38.2916C17.4661 39.1299 13.6148 39.9196 10.6079 45.0769C10.1645 45.8362 9.8243 46.6381 9.4659 47.4824C8.87667 48.8674 8.26314 50.301 7.16365 51.5766C6.51975 52.3238 5.46886 53.2411 4.36329 54.213C2.93578 55.4644 0.797545 57.3414 0.682129 58.0703C1.03445 58.4287 3.30633 59.5708 7.44916 59.0423C18.195 57.6694 20.4547 54.6018 29.4633 54.6079C30.3441 54.6079 31.2674 54.6504 32.209 54.6504C39.1886 54.6504 56.3552 53.7574 64.9203 45.5021C66.4511 44.026 69.373 40.7944 70.3084 39.7495C69.8589 39.3122 68.9174 38.5468 67.909 38.5468Z" fill="url(#paint5_linear)"/>
<defs>
<linearGradient id="paint0_linear" x1="25.5786" y1="9.00534" x2="53.4476" y2="9.00534" gradientUnits="userSpaceOnUse">
<stop stop-color="#F39C12"/>
<stop offset="1" stop-color="#FF4B2D"/>
</linearGradient>
<linearGradient id="paint1_linear" x1="27.7427" y1="19.0945" x2="51.2836" y2="19.0945" gradientUnits="userSpaceOnUse">
<stop stop-color="#F39C12"/>
<stop offset="1" stop-color="#FF4B2D"/>
</linearGradient>
<linearGradient id="paint2_linear" x1="40.0534" y1="41.5403" x2="54.6655" y2="41.5403" gradientUnits="userSpaceOnUse">
<stop stop-color="#AEB202"/>
<stop offset="1" stop-color="#5CB202"/>
</linearGradient>
<linearGradient id="paint3_linear" x1="44.5809" y1="41.3601" x2="62.1952" y2="41.3601" gradientUnits="userSpaceOnUse">
<stop stop-color="#AEB202"/>
<stop offset="1" stop-color="#5CB202"/>
</linearGradient>
<linearGradient id="paint4_linear" x1="51.9194" y1="41.4781" x2="66.083" y2="41.4781" gradientUnits="userSpaceOnUse">
<stop stop-color="#AEB202"/>
<stop offset="1" stop-color="#5CB202"/>
</linearGradient>
<linearGradient id="paint5_linear" x1="0.684741" y1="48.5214" x2="70.3138" y2="48.5214" gradientUnits="userSpaceOnUse">
<stop stop-color="#AEB202"/>
<stop offset="1" stop-color="#5CB202"/>
</linearGradient>
</defs>
</svg>
