<svg width="70" height="70" viewBox="0 0 70 70" fill="none" xmlns="http://www.w3.org/2000/svg">
<path d="M34.7824 0.892578C15.7286 0.892578 0.282471 16.2829 0.282471 35.2678C0.282471 54.2528 15.7286 69.6431 34.7824 69.6431C53.8362 69.6431 69.2824 54.2528 69.2824 35.2678C69.2824 16.2829 53.8362 0.892578 34.7824 0.892578ZM22.384 14.547C23.0948 14.5052 23.7373 14.9286 24.2244 15.68L28.9412 24.5927C29.4378 25.6488 29.1556 26.7796 28.4148 27.5342L26.2543 29.6868C26.121 29.8689 26.0332 30.074 26.0311 30.2995C26.8596 33.4949 29.3728 36.4425 31.5903 38.4695C33.8076 40.4965 36.1908 43.2408 39.2844 43.891C39.6668 43.9973 40.1353 44.0354 40.4089 43.782L42.9189 41.2349C43.7853 40.5805 45.0387 40.2634 45.9637 40.7985H46.0058L54.517 45.8045C55.7664 46.5848 55.8958 48.093 55.0014 49.0104L49.1392 54.8054C48.2735 55.6899 47.1234 55.9873 46.006 55.9887C41.064 55.8411 36.3944 53.4243 32.5589 50.9407C26.2632 46.3772 20.4883 40.7171 16.8629 33.8789C15.4724 31.0114 13.839 27.3528 13.9949 24.1522C14.0088 22.9481 14.3357 21.7686 15.1867 20.9925L21.049 15.1514C21.5057 14.7642 21.9575 14.5721 22.384 14.547Z" fill="url(#paint0_radial)"/>
<defs>
<radialGradient id="paint0_radial" cx="0" cy="0" r="1" gradientUnits="userSpaceOnUse" gradientTransform="translate(34.7824 35.2678) rotate(90) scale(34.3753 34.5)">
<stop stop-color="#D82349"/>
<stop offset="1" stop-color="#F28FBB"/>
</radialGradient>
</defs>
</svg>
