<svg width="28" height="29" viewBox="0 0 28 29" fill="none" xmlns="http://www.w3.org/2000/svg">
<path fill-rule="evenodd" clip-rule="evenodd" d="M13.6757 1.09668C14.0221 0.923502 14.4297 0.923502 14.7761 1.09668L27.079 7.24811C27.4958 7.45652 27.7591 7.88252 27.7591 8.34852V20.6514C27.7591 21.1174 27.4958 21.5434 27.079 21.7518L14.7761 27.9032C14.4297 28.0764 14.0221 28.0764 13.6757 27.9032L1.37283 21.7518C0.956033 21.5434 0.692749 21.1174 0.692749 20.6514V8.34852C0.692749 7.88252 0.956033 7.45652 1.37283 7.24811L13.6757 1.09668ZM3.15332 9.10888V19.891L14.2259 25.4273L25.2985 19.891V9.10888L14.2259 3.57259L3.15332 9.10888Z" fill="black" fill-opacity="0.6"/>
<path fill-rule="evenodd" clip-rule="evenodd" d="M0.822781 7.7995C1.12665 7.19176 1.86565 6.94543 2.47338 7.24929L14.7762 13.4007C15.384 13.7046 15.6303 14.4436 15.3265 15.0513C15.0226 15.6591 14.2836 15.9054 13.6758 15.6015L1.37298 9.4501C0.765247 9.14623 0.518914 8.40723 0.822781 7.7995Z" fill="black" fill-opacity="0.6"/>
<path fill-rule="evenodd" clip-rule="evenodd" d="M14.226 13.2695C14.9055 13.2695 15.4563 13.8203 15.4563 14.4998V26.8027C15.4563 27.4822 14.9055 28.033 14.226 28.033C13.5465 28.033 12.9957 27.4822 12.9957 26.8027V14.4998C12.9957 13.8203 13.5465 13.2695 14.226 13.2695Z" fill="black" fill-opacity="0.6"/>
<path fill-rule="evenodd" clip-rule="evenodd" d="M27.6292 7.7995C27.9331 8.40723 27.6867 9.14623 27.079 9.4501L14.7761 15.6015C14.1684 15.9054 13.4294 15.6591 13.1255 15.0513C12.8216 14.4436 13.068 13.7046 13.6757 13.4007L25.9786 7.24929C26.5863 6.94543 27.3253 7.19176 27.6292 7.7995Z" fill="black" fill-opacity="0.6"/>
<path fill-rule="evenodd" clip-rule="evenodd" d="M21.4777 4.72332C21.7816 5.33106 21.5352 6.07006 20.9275 6.37393L8.62463 12.5254C8.01689 12.8292 7.27789 12.5829 6.97403 11.9752C6.67016 11.3674 6.91649 10.6284 7.52423 10.3246L19.8271 4.17312C20.4348 3.86926 21.1738 4.11559 21.4777 4.72332Z" fill="black" fill-opacity="0.6"/>
</svg>
