<svg width="31" height="31" viewBox="0 0 31 31" fill="none" xmlns="http://www.w3.org/2000/svg">
<path d="M21.9351 19.415H20.6068L20.136 18.961C21.7837 17.0442 22.7757 14.5558 22.7757 11.8488C22.7757 5.8127 17.883 0.919922 11.8469 0.919922C5.81075 0.919922 0.917969 5.8127 0.917969 11.8488C0.917969 17.8849 5.81075 22.7777 11.8469 22.7777C14.5539 22.7777 17.0423 21.7857 18.959 20.1379L19.413 20.6087V21.937L27.8198 30.327L30.3251 27.8218L21.9351 19.415ZM11.8469 19.415C7.66025 19.415 4.2807 16.0354 4.2807 11.8488C4.2807 7.6622 7.66025 4.28266 11.8469 4.28266C16.0335 4.28266 19.413 7.6622 19.413 11.8488C19.413 16.0354 16.0335 19.415 11.8469 19.415Z" fill="#09AE53"/>
</svg>
