<svg width="30" height="30" viewBox="0 0 30 30" fill="none" xmlns="http://www.w3.org/2000/svg">
<path d="M21.0171 18.7919H19.6888L19.218 18.3379C20.8658 16.4212 21.8578 13.9328 21.8578 11.2258C21.8578 5.18965 16.965 0.296875 10.9289 0.296875C4.89278 0.296875 0 5.18965 0 11.2258C0 17.2619 4.89278 22.1546 10.9289 22.1546C13.6359 22.1546 16.1243 21.1626 18.0411 19.5149L18.495 19.9857V21.314L26.9019 29.704L29.4071 27.1987L21.0171 18.7919ZM10.9289 18.7919C6.74228 18.7919 3.36273 15.4124 3.36273 11.2258C3.36273 7.03916 6.74228 3.65961 10.9289 3.65961C15.1155 3.65961 18.495 7.03916 18.495 11.2258C18.495 15.4124 15.1155 18.7919 10.9289 18.7919Z" fill="black"/>
</svg>
