<svg width="71" height="61" viewBox="0 0 71 61" fill="none" xmlns="http://www.w3.org/2000/svg">
<path d="M33.4386 26.4642C31.5555 26.7141 29.6845 27.0493 27.8501 27.4698C30.166 30.7791 33.6093 33.2351 37.6255 34.2651C35.8276 32.583 34.3711 29.8527 33.4386 26.4642Z" fill="url(#paint0_linear)"/>
<path d="M34.4076 10.6493C33.9688 12.6178 33.7006 14.7752 33.658 17.024H41.2089V11.0698C38.9357 11.0455 36.6625 10.9053 34.4076 10.6493Z" fill="url(#paint1_linear)"/>
<path d="M51.4173 18.3526C51.3746 20.7843 51.1004 23.088 50.6311 25.1722C52.6666 25.4465 54.6778 25.8182 56.6584 26.2875C58.0297 23.9412 58.8585 21.2353 58.9682 18.3526H51.4173Z" fill="url(#paint2_linear)"/>
<path d="M33.658 18.3526C33.7067 20.7111 33.9931 22.9661 34.4685 25.0077C36.6991 24.7517 38.954 24.6176 41.2089 24.5933V18.3526H33.658Z" fill="url(#paint3_linear)"/>
<path d="M24.7786 18.3526C24.8883 21.2353 25.7171 23.9351 27.0883 26.2875C29.069 25.8182 31.0802 25.4526 33.1157 25.1722C32.6464 23.0819 32.3722 20.7843 32.3295 18.3526H24.7786Z" fill="url(#paint4_linear)"/>
<path d="M26.9482 9.33902C25.6623 11.6305 24.8883 14.2389 24.7847 17.024H32.3295C32.3722 14.696 32.622 12.4898 33.0547 10.4787C30.9948 10.1983 28.9532 9.82048 26.9482 9.33902Z" fill="url(#paint5_linear)"/>
<path d="M41.2089 34.7343V25.9158C39.0698 25.9401 36.9307 26.0681 34.8098 26.2997C36.1506 30.9558 38.5213 34.259 41.2089 34.7343Z" fill="url(#paint6_linear)"/>
<path d="M48.9365 26.2997C46.8156 26.0681 44.6765 25.934 42.5374 25.9158V34.7343C45.225 34.259 47.5957 30.9558 48.9365 26.2997Z" fill="url(#paint7_linear)"/>
<path d="M46.1211 34.2651C50.1373 33.2351 53.5867 30.7791 55.8965 27.4698C54.0621 27.0493 52.1911 26.7141 50.3079 26.4642C49.3755 29.8527 47.9128 32.583 46.1211 34.2651Z" fill="url(#paint8_linear)"/>
<path d="M42.5374 0.642338V9.74735C44.707 9.72297 46.8705 9.59499 49.0157 9.35121C47.6871 4.54884 45.2798 1.12379 42.5374 0.642338Z" fill="url(#paint9_linear)"/>
<path d="M58.962 17.024C58.8523 14.2389 58.0844 11.6305 56.7985 9.33902C54.7934 9.82048 52.7518 10.1983 50.6919 10.4787C51.1246 12.4898 51.3745 14.696 51.4171 17.024H58.962Z" fill="url(#paint10_linear)"/>
<path d="M50.3811 9.18667C52.3008 8.9307 54.2022 8.58942 56.0732 8.15671C53.7574 4.71948 50.2348 2.16594 46.1211 1.11161C47.9616 2.83632 49.4547 5.67021 50.3811 9.18667Z" fill="url(#paint11_linear)"/>
<path d="M50.0883 17.024C50.0456 14.7691 49.7775 12.6178 49.3387 10.6493C47.0838 10.9053 44.8167 11.0455 42.5374 11.0698V17.024H50.0883Z" fill="url(#paint12_linear)"/>
<path d="M42.5374 18.3526V24.5933C44.7923 24.6176 47.0472 24.7517 49.2777 25.0077C49.7592 22.9661 50.0456 20.7111 50.0883 18.3526H42.5374Z" fill="url(#paint13_linear)"/>
<path d="M37.6255 1.11161C33.5057 2.16594 29.9831 4.71948 27.6733 8.15062C29.5443 8.58332 31.4458 8.92461 33.3655 9.18057C34.2918 5.67021 35.785 2.83632 37.6255 1.11161Z" fill="url(#paint14_linear)"/>
<path d="M34.7307 9.35121C36.8759 9.58889 39.0394 9.72297 41.209 9.74735V0.642338C38.4666 1.12379 36.0593 4.54884 34.7307 9.35121Z" fill="url(#paint15_linear)"/>
<path d="M51.1671 42.4072C51.1976 42.3645 52.9284 40.0486 55.159 38.3178C54.8969 38.1837 54.5495 38.074 54.1046 38.074C53.611 38.074 53.0564 38.2081 52.4652 38.4641C51.3439 38.9516 50.5272 39.9206 49.4912 41.1456C48.9 41.8404 48.2357 42.6265 47.4191 43.431C46.3282 44.5036 44.7132 45.4726 42.6228 46.3137C41.9585 46.5818 41.2516 46.8317 40.502 47.0694C40.5141 47.0694 40.5324 47.0694 40.5446 47.0755C41.2394 47.1547 41.9402 47.2278 42.635 47.2948C42.6655 47.2948 42.702 47.3009 42.7325 47.307C43.7015 46.9901 44.4572 46.6976 44.9874 46.4477C46.511 45.7164 49.095 43.9795 51.1671 42.4072Z" fill="url(#paint16_linear)"/>
<path d="M57.8283 41.3406C59.3336 40.0974 60.9973 38.7322 62.716 38.0131C61.7043 37.361 60.6012 37.2818 59.2056 37.745C57.877 38.1777 57.0725 38.8298 53.4708 41.8343C51.2951 43.6443 47.4495 46.3502 45.4079 47.3314C45.2982 47.3863 45.1763 47.4411 45.0422 47.496C45.1702 47.5021 45.2921 47.5142 45.414 47.5203C45.5115 47.5264 45.6151 47.5325 45.7126 47.5386C45.9747 47.5508 46.2306 47.563 46.4683 47.5752C46.7365 47.5874 47.0046 47.5874 47.2789 47.5813C47.3703 47.5813 47.4617 47.5691 47.5531 47.5691C47.742 47.563 47.931 47.5569 48.126 47.5386C48.2357 47.5325 48.3515 47.5143 48.4612 47.5082C48.644 47.4899 48.8208 47.4777 49.0036 47.4533C49.1255 47.4411 49.2535 47.4167 49.3753 47.3985C49.5399 47.3741 49.7044 47.3497 49.8751 47.3253C51.6973 46.1796 55.4941 43.2238 56.8288 42.1695C57.1518 41.8952 57.4809 41.621 57.8283 41.3406Z" fill="url(#paint17_linear)"/>
<path d="M58.4438 42.0903C58.0965 42.3767 57.7613 42.6509 57.4322 42.913C57.3956 42.9435 54.6958 45.0887 52.4043 46.7525C52.4896 46.7281 52.5749 46.7098 52.6603 46.6854C52.7151 46.6732 52.77 46.6549 52.8187 46.6428C53.2392 46.5209 53.6597 46.3929 54.062 46.2649C54.0924 46.2527 54.1229 46.2466 54.1534 46.2344C54.3301 46.1796 54.5008 46.1186 54.6714 46.0577C54.708 46.0455 54.7385 46.0333 54.775 46.0211C54.9578 45.9602 55.1346 45.8931 55.3113 45.8322C55.3235 45.8261 55.3357 45.8261 55.3418 45.82C55.7318 45.6798 56.1097 45.5336 56.4632 45.3934C56.4753 45.3873 56.4875 45.3873 56.4997 45.3812C56.6643 45.3142 56.8227 45.2532 56.9812 45.1862C56.9934 45.1801 57.0117 45.174 57.0238 45.1679C57.5175 44.9668 57.9624 44.7779 58.3463 44.6133C58.3646 44.6072 58.3829 44.6011 58.3951 44.5889C58.5048 44.5402 58.6145 44.4914 58.712 44.4488C58.7242 44.4427 58.7364 44.4366 58.7546 44.4305C58.8643 44.3817 58.9619 44.3391 59.0594 44.2964C59.9613 43.8942 60.9608 43.1385 62.1127 42.2609C63.4351 41.2553 64.9222 40.1279 66.6164 39.2807C66.1349 38.7688 65.4219 38.5128 64.4712 38.5128C62.4722 38.7749 60.3331 40.5362 58.4438 42.0903Z" fill="url(#paint18_linear)"/>
<path d="M68.4507 39.683C68.1947 39.683 67.9449 39.7317 67.7072 39.8353C65.824 40.652 64.1663 41.9135 62.7037 43.0227C61.497 43.9368 60.4549 44.7291 59.4554 45.174C57.8343 45.8931 54.0375 47.5813 50.1371 48.2517C49.0035 48.4406 47.937 48.5381 46.9619 48.5381C46.7852 48.5381 46.6084 48.5381 46.4317 48.5259C45.3895 48.4894 44.1097 48.3979 42.7446 48.2761C41.1661 48.1298 39.5267 47.9409 38.0032 47.7215C31.7381 46.8317 31.1409 46.0089 30.9398 45.7408C30.6533 45.3507 30.7386 45.0399 30.8179 44.8876C31.0556 44.4244 31.7016 44.3635 32.2988 44.3635C33.6822 44.3635 35.797 44.784 35.8884 44.8023L35.9433 44.8144C35.9615 44.8205 37.735 45.3751 39.606 45.3751C40.575 45.3751 41.3977 45.2289 42.0498 44.9363C42.2083 44.8632 42.3667 44.7779 42.5191 44.6865C43.092 44.3208 43.738 43.7479 43.5917 43.1019C43.482 42.6326 42.9944 42.2914 42.8055 42.267C42.4825 42.2243 41.4343 41.9866 39.6182 41.5661C37.607 41.103 35.1083 40.524 33.5055 40.2193C32.9875 40.1218 32.4268 39.9999 31.8417 39.8719C29.9768 39.4636 27.8682 39.0065 25.5828 39.0065C24.5163 39.0065 23.529 39.104 22.5539 39.3051L21.9445 39.4331C17.849 40.2741 13.9852 41.0664 10.9685 46.2405C10.5236 47.0023 10.1823 47.8068 9.82272 48.6539C9.23157 50.0434 8.61604 51.4817 7.51295 52.7615C6.86695 53.505 5.81262 54.4314 4.69735 55.4065C3.26517 56.6558 1.11994 58.539 1.00415 59.2764C1.35762 59.636 3.64302 60.7817 7.79329 60.2515C18.5743 58.8742 20.8414 55.7965 29.8793 55.8026C30.763 55.8026 31.6894 55.8453 32.634 55.8453C39.6425 55.8453 56.8592 54.9494 65.4523 46.6671C66.988 45.1862 69.9194 41.944 70.858 40.8958C70.4009 40.457 69.4563 39.683 68.4507 39.683Z" fill="url(#paint19_linear)"/>
<defs>
<linearGradient id="paint0_linear" x1="25.7751" y1="30.3635" x2="56.8864" y2="30.3635" gradientUnits="userSpaceOnUse">
<stop stop-color="#0093BF"/>
<stop offset="1" stop-color="#4474E0"/>
</linearGradient>
<linearGradient id="paint1_linear" x1="25.7755" y1="13.8363" x2="56.8844" y2="13.8363" gradientUnits="userSpaceOnUse">
<stop stop-color="#0093BF"/>
<stop offset="1" stop-color="#4474E0"/>
</linearGradient>
<linearGradient id="paint2_linear" x1="25.7741" y1="22.3186" x2="56.8856" y2="22.3186" gradientUnits="userSpaceOnUse">
<stop stop-color="#0093BF"/>
<stop offset="1" stop-color="#4474E0"/>
</linearGradient>
<linearGradient id="paint3_linear" x1="25.7755" y1="21.6784" x2="56.8844" y2="21.6784" gradientUnits="userSpaceOnUse">
<stop stop-color="#0093BF"/>
<stop offset="1" stop-color="#4474E0"/>
</linearGradient>
<linearGradient id="paint4_linear" x1="25.7754" y1="22.3186" x2="56.8848" y2="22.3186" gradientUnits="userSpaceOnUse">
<stop stop-color="#0093BF"/>
<stop offset="1" stop-color="#4474E0"/>
</linearGradient>
<linearGradient id="paint5_linear" x1="25.7754" y1="13.182" x2="56.8856" y2="13.182" gradientUnits="userSpaceOnUse">
<stop stop-color="#0093BF"/>
<stop offset="1" stop-color="#4474E0"/>
</linearGradient>
<linearGradient id="paint6_linear" x1="25.776" y1="30.3232" x2="56.8839" y2="30.3232" gradientUnits="userSpaceOnUse">
<stop stop-color="#0093BF"/>
<stop offset="1" stop-color="#4474E0"/>
</linearGradient>
<linearGradient id="paint7_linear" x1="25.7746" y1="30.3232" x2="56.8854" y2="30.3232" gradientUnits="userSpaceOnUse">
<stop stop-color="#0093BF"/>
<stop offset="1" stop-color="#4474E0"/>
</linearGradient>
<linearGradient id="paint8_linear" x1="25.7757" y1="30.3635" x2="56.8852" y2="30.3635" gradientUnits="userSpaceOnUse">
<stop stop-color="#0093BF"/>
<stop offset="1" stop-color="#4474E0"/>
</linearGradient>
<linearGradient id="paint9_linear" x1="25.7748" y1="5.19466" x2="56.8853" y2="5.19466" gradientUnits="userSpaceOnUse">
<stop stop-color="#0093BF"/>
<stop offset="1" stop-color="#4474E0"/>
</linearGradient>
<linearGradient id="paint10_linear" x1="25.7754" y1="13.182" x2="56.8856" y2="13.182" gradientUnits="userSpaceOnUse">
<stop stop-color="#0093BF"/>
<stop offset="1" stop-color="#4474E0"/>
</linearGradient>
<linearGradient id="paint11_linear" x1="25.7752" y1="5.14944" x2="56.8855" y2="5.14944" gradientUnits="userSpaceOnUse">
<stop stop-color="#0093BF"/>
<stop offset="1" stop-color="#4474E0"/>
</linearGradient>
<linearGradient id="paint12_linear" x1="25.7742" y1="13.8363" x2="56.8857" y2="13.8363" gradientUnits="userSpaceOnUse">
<stop stop-color="#0093BF"/>
<stop offset="1" stop-color="#4474E0"/>
</linearGradient>
<linearGradient id="paint13_linear" x1="25.7742" y1="21.6784" x2="56.8857" y2="21.6784" gradientUnits="userSpaceOnUse">
<stop stop-color="#0093BF"/>
<stop offset="1" stop-color="#4474E0"/>
</linearGradient>
<linearGradient id="paint14_linear" x1="25.7753" y1="5.14944" x2="56.8856" y2="5.14944" gradientUnits="userSpaceOnUse">
<stop stop-color="#0093BF"/>
<stop offset="1" stop-color="#4474E0"/>
</linearGradient>
<linearGradient id="paint15_linear" x1="25.7763" y1="5.19466" x2="56.884" y2="5.19466" gradientUnits="userSpaceOnUse">
<stop stop-color="#0093BF"/>
<stop offset="1" stop-color="#4474E0"/>
</linearGradient>
<linearGradient id="paint16_linear" x1="40.5016" y1="42.6905" x2="55.161" y2="42.6905" gradientUnits="userSpaceOnUse">
<stop stop-color="#AEB202"/>
<stop offset="1" stop-color="#5CB202"/>
</linearGradient>
<linearGradient id="paint17_linear" x1="45.0439" y1="42.5103" x2="62.7158" y2="42.5103" gradientUnits="userSpaceOnUse">
<stop stop-color="#AEB202"/>
<stop offset="1" stop-color="#5CB202"/>
</linearGradient>
<linearGradient id="paint18_linear" x1="52.4066" y1="42.6284" x2="66.6165" y2="42.6284" gradientUnits="userSpaceOnUse">
<stop stop-color="#AEB202"/>
<stop offset="1" stop-color="#5CB202"/>
</linearGradient>
<linearGradient id="paint19_linear" x1="1.00415" y1="49.695" x2="70.861" y2="49.695" gradientUnits="userSpaceOnUse">
<stop stop-color="#AEB202"/>
<stop offset="1" stop-color="#5CB202"/>
</linearGradient>
</defs>
</svg>
