<svg width="70" height="60" viewBox="0 0 70 60" fill="none" xmlns="http://www.w3.org/2000/svg">
<path d="M49.9996 41.7085C50.0299 41.666 51.7551 39.3577 53.9784 37.6325C53.7172 37.4989 53.3709 37.3895 52.9275 37.3895C52.4355 37.3895 51.8827 37.5232 51.2935 37.7783C50.1757 38.2643 49.3617 39.2301 48.3291 40.4511C47.7398 41.1436 47.0777 41.9272 46.2637 42.729C45.1764 43.7982 43.5666 44.764 41.4831 45.6023C40.821 45.8696 40.1163 46.1186 39.3691 46.3555C39.3813 46.3555 39.3995 46.3555 39.4117 46.3616C40.1042 46.4406 40.8027 46.5135 41.4952 46.5803C41.5256 46.5803 41.562 46.5864 41.5924 46.5924C42.5583 46.2766 43.3115 45.985 43.84 45.7359C45.3586 45.007 47.9282 43.2757 49.9996 41.7085Z" fill="url(#paint0_linear)"/>
<path d="M56.6391 40.6455C58.1396 39.4063 59.7979 38.0456 61.5109 37.3288C60.5025 36.6788 59.4031 36.5998 58.012 37.0615C56.6877 37.4928 55.8859 38.1428 52.2959 41.1375C50.1272 42.9416 46.2942 45.6387 44.2592 46.6167C44.1499 46.6714 44.0284 46.7261 43.8948 46.7807C44.0223 46.7868 44.1438 46.799 44.2653 46.805C44.3625 46.8111 44.4658 46.8172 44.563 46.8233C44.8242 46.8354 45.0793 46.8476 45.3162 46.8597C45.5835 46.8719 45.8508 46.8719 46.1241 46.8658C46.2152 46.8658 46.3064 46.8536 46.3975 46.8536C46.5858 46.8476 46.7741 46.8415 46.9685 46.8233C47.0778 46.8172 47.1932 46.799 47.3026 46.7929C47.4848 46.7747 47.661 46.7625 47.8432 46.7382C47.9647 46.7261 48.0923 46.7018 48.2138 46.6836C48.3778 46.6593 48.5418 46.635 48.7119 46.6107C50.5282 45.4686 54.3126 42.5225 55.6429 41.4716C55.9649 41.2043 56.2929 40.9249 56.6391 40.6455Z" fill="url(#paint1_linear)"/>
<path d="M57.2525 41.3926C56.9063 41.6781 56.5722 41.9515 56.2442 42.2127C56.2077 42.2431 53.5167 44.3813 51.2327 46.0396C51.3177 46.0153 51.4028 45.9971 51.4878 45.9728C51.5425 45.9607 51.5971 45.9424 51.6457 45.9303C52.0649 45.8088 52.484 45.6812 52.8849 45.5537C52.9153 45.5415 52.9457 45.5355 52.9761 45.5233C53.1522 45.4686 53.3223 45.4079 53.4924 45.3471C53.5288 45.335 53.5592 45.3228 53.5957 45.3107C53.7779 45.2499 53.9541 45.1831 54.1302 45.1224C54.1424 45.1163 54.1545 45.1163 54.1606 45.1102C54.5494 44.9705 54.926 44.8247 55.2783 44.685C55.2905 44.6789 55.3026 44.6789 55.3147 44.6729C55.4788 44.606 55.6367 44.5453 55.7946 44.4785C55.8068 44.4724 55.825 44.4663 55.8372 44.4603C56.3292 44.2598 56.7726 44.0715 57.1553 43.9075C57.1736 43.9014 57.1918 43.8953 57.2039 43.8832C57.3133 43.8346 57.4226 43.786 57.5198 43.7435C57.532 43.7374 57.5441 43.7313 57.5623 43.7252C57.6717 43.6766 57.7689 43.6341 57.8661 43.5916C58.7651 43.1907 59.7613 42.4374 60.9094 41.5627C62.2276 40.5604 63.7098 39.4366 65.3985 38.5923C64.9186 38.082 64.2079 37.8269 63.2602 37.8269C61.2678 38.0881 59.1356 39.8436 57.2525 41.3926Z" fill="url(#paint2_linear)"/>
<path d="M67.2269 38.9932C66.9717 38.9932 66.7227 39.0479 66.4858 39.1451C64.6087 39.959 62.9565 41.2165 61.4986 42.322C60.2958 43.2332 59.2631 44.0229 58.2608 44.4663C56.645 45.1831 52.8606 46.8658 48.9729 47.534C47.843 47.7223 46.78 47.8195 45.8081 47.8195C45.6319 47.8195 45.4557 47.8195 45.2796 47.8073C44.2408 47.7709 42.9652 47.6798 41.6045 47.5583C40.0312 47.4125 38.3971 47.2242 36.8785 47.0055C30.6278 46.1065 30.0325 45.2864 29.8381 45.0191C29.5526 44.6304 29.6376 44.3205 29.7166 44.1687C29.9535 43.707 30.5974 43.6463 31.1927 43.6463C32.5716 43.6463 34.6795 44.0654 34.7706 44.0836L34.8253 44.0958C34.8435 44.1019 36.6112 44.6546 38.4761 44.6546C39.4419 44.6546 40.262 44.5089 40.912 44.2173C41.0699 44.1444 41.2279 44.0593 41.3797 43.9682C41.9507 43.6038 42.5946 43.0328 42.4488 42.3888C42.3395 41.9211 41.8535 41.5809 41.6652 41.5566C41.3433 41.5141 40.2985 41.2772 38.4822 40.8581C36.4776 40.3964 33.987 39.8193 32.3894 39.5156C31.8731 39.4184 31.3142 39.2969 30.7311 39.1693C28.8723 38.7624 26.7705 38.3068 24.4925 38.3068C23.4295 38.3068 22.4454 38.404 21.4735 38.6044L20.866 38.732C16.7839 39.5703 12.9327 40.36 9.92579 45.5172C9.48235 46.2765 9.14217 47.0784 8.78377 47.9228C8.19454 49.3077 7.58102 50.7413 6.48153 52.017C5.83763 52.7581 4.78673 53.6814 3.68117 54.6533C2.25365 55.9047 0.115416 57.7817 0 58.5107C0.352323 58.8691 2.6242 60.0111 6.76703 59.4826C17.5129 58.1097 19.7726 55.0421 28.7811 55.0482C29.6619 55.0482 30.5853 55.0907 31.5268 55.0907C38.5065 55.0907 55.6731 54.1977 64.2382 45.9424C65.769 44.4663 68.6908 41.2347 69.6263 40.1899C69.1707 39.7647 68.2291 38.9932 67.2269 38.9932Z" fill="url(#paint3_linear)"/>
<path d="M15.9226 17.2629C17.4437 29.4212 29.1925 26.5864 33.1601 25.028C33.1442 24.8632 33.1335 24.693 33.1176 24.5281C28.8999 16.9491 26.4959 13.7473 15.9226 17.2629ZM27.2512 22.0709C26.5491 21.6667 25.7992 21.2412 25.0387 20.8317C24.2834 20.4168 23.5122 20.0339 22.7836 19.6882C22.0549 19.3478 21.3635 19.0446 20.7519 18.8479C20.4487 18.7468 20.1668 18.6617 19.9115 18.5979C19.6563 18.5341 19.4329 18.4862 19.2467 18.4702C19.0606 18.4436 18.9116 18.433 18.8106 18.433C18.7095 18.4277 18.6564 18.4277 18.6564 18.4277C18.6564 18.4277 18.7095 18.4224 18.8106 18.4117C18.9116 18.3958 19.0606 18.3798 19.252 18.3905C19.4435 18.3905 19.6775 18.4117 19.9381 18.4436C20.2041 18.4756 20.5019 18.5341 20.8157 18.6192C21.4486 18.7894 22.1773 19.0287 22.9325 19.3478C23.6877 19.6616 24.4696 20.0499 25.2354 20.4594C26.0013 20.8742 26.7512 21.3157 27.4373 21.7518C28.1287 22.1826 28.751 22.6187 29.2882 22.991C29.8254 23.3633 30.2509 23.6984 30.554 23.9271C30.8572 24.1611 31.0221 24.2994 31.0221 24.2994C31.0221 24.2994 30.2775 23.858 29.1606 23.1931C28.6074 22.8528 27.9479 22.4805 27.2512 22.0709Z" fill="url(#paint4_linear)"/>
<path d="M34.8513 27.916C34.8513 27.916 34.8673 27.9213 34.8885 27.932C37.4468 28.9638 45.4885 31.0061 46.5203 22.773C39.3083 20.3743 37.7765 22.64 34.8513 27.916ZM44.1748 24.5653C44.0791 24.6451 43.9727 24.7568 43.8397 24.8631C43.7068 24.9695 43.5525 25.0918 43.377 25.2142C43.2015 25.3365 43.0047 25.4588 42.7973 25.5865C42.5899 25.7194 42.3612 25.8365 42.1271 25.9641C41.6538 26.2141 41.1326 26.4321 40.6007 26.6396C40.0635 26.831 39.5264 27.0119 39.0104 27.1395C38.4999 27.2778 38.0106 27.3788 37.5957 27.4533C37.1755 27.5278 36.8245 27.565 36.5799 27.5916C36.3352 27.6182 36.1916 27.6235 36.1916 27.6235C36.1916 27.6235 36.7288 27.4639 37.5372 27.2193C38.3403 26.9693 39.404 26.6342 40.4465 26.246C40.7071 26.1449 40.9677 26.0492 41.2177 25.9428C41.4676 25.8311 41.7229 25.7407 41.9569 25.629C42.191 25.5173 42.425 25.4216 42.6377 25.3152C42.8505 25.2035 43.0579 25.1131 43.2387 25.0121C43.4196 24.9057 43.5897 24.8153 43.7387 24.7355C43.8929 24.6557 44.0099 24.5653 44.1163 24.5015C44.3237 24.3685 44.446 24.2994 44.446 24.2994C44.446 24.2994 44.3609 24.3951 44.1748 24.5653Z" fill="url(#paint5_linear)"/>
<path d="M33.3514 17.1991C33.3514 17.1938 33.2131 16.2896 33.128 14.9227C33.0961 14.2366 33.0482 13.4388 33.0482 12.5772C33.0429 12.1464 33.0482 11.705 33.0589 11.2529C33.0642 10.8008 33.0961 10.3434 33.1174 9.88603C33.1493 9.42863 33.1918 8.97123 33.229 8.52447C33.2769 8.07771 33.3354 7.63627 33.3939 7.21078C33.4631 6.78529 33.5322 6.37576 33.6067 5.9875C33.6918 5.60457 33.7715 5.23759 33.846 4.90252C33.9364 4.56745 34.0215 4.26429 34.1066 3.99836C34.1811 3.72711 34.2768 3.50373 34.3406 3.31226C34.4842 2.93996 34.564 2.7219 34.564 2.7219C34.564 2.7219 34.5108 2.94528 34.4204 3.33353C34.3779 3.53032 34.3034 3.75902 34.2609 4.03559C34.213 4.30683 34.1545 4.61531 34.0853 4.95038C34.0322 5.28545 33.979 5.65244 33.9151 6.03538C33.8673 6.42363 33.8194 6.83316 33.7662 7.25333C33.7237 7.67882 33.6811 8.11494 33.6386 8.5617C33.6067 9.00846 33.5748 9.46054 33.5428 9.91262C33.5216 10.3647 33.4843 10.8221 33.4684 11.2689C33.4524 11.7156 33.4365 12.1571 33.4205 12.5825C33.3939 13.4335 33.3726 14.2313 33.3673 14.9174C33.3567 16.279 33.3514 17.1884 33.3514 17.1991C33.3726 17.0555 33.3939 16.9119 33.4099 16.7683C33.5322 16.1566 33.6226 15.5769 33.7556 15.0504C34.2343 12.9336 34.8193 11.6039 34.8193 11.6039C34.8193 11.6039 34.3353 12.9708 34.0162 15.0982C33.9205 15.6248 33.8779 16.2098 33.7981 16.8161C33.7662 17.4331 33.6864 18.0713 33.6918 18.7468C33.6864 18.9755 33.6811 19.2148 33.6811 19.4488C39.5103 12.8166 41.8186 9.49777 34.8884 0.642334C24.2726 5.99814 30.1921 15.6833 33.112 19.1829C33.128 19.0234 33.1439 18.8638 33.1546 18.7042C33.1971 18.1883 33.2822 17.6831 33.3514 17.1991Z" fill="url(#paint6_linear)"/>
<path d="M36.218 31.7986C36.0212 31.4156 35.8829 30.9529 35.6861 30.4583C35.5053 29.9637 35.2766 29.4371 35.1224 28.8468C34.9575 28.2617 34.7447 27.6554 34.5958 27.0118C34.4575 26.363 34.282 25.6982 34.165 25.0121C34.1118 24.6664 34.0586 24.3207 34.0001 23.9696C33.9416 23.6186 33.8884 23.2676 33.8618 22.9165C33.798 22.2092 33.7129 21.5018 33.7076 20.7997C33.697 20.4487 33.6757 20.103 33.6757 19.7573C33.6757 19.6509 33.681 19.5499 33.681 19.4435C33.6863 19.2095 33.6917 18.9702 33.6917 18.7415C33.6917 18.0713 33.7661 17.4278 33.798 16.8108C33.8778 16.2045 33.9204 15.6195 34.0161 15.0929C34.3352 12.9655 34.8192 11.5986 34.8192 11.5986C34.8192 11.5986 34.2341 12.9229 33.7555 15.045C33.6172 15.5716 33.5321 16.1513 33.4098 16.7629C33.3938 16.9012 33.3725 17.0448 33.3513 17.1938C33.2768 17.6831 33.197 18.183 33.1598 18.7095C33.1438 18.8638 33.1332 19.0287 33.1172 19.1882C33.1013 19.3744 33.0853 19.5552 33.0641 19.7467C33.0428 20.0977 33.0321 20.454 33.0215 20.8104C32.979 21.5284 33.0056 22.257 33.0215 22.9857C33.0215 23.3527 33.0481 23.7143 33.08 24.076C33.0907 24.2249 33.1066 24.3738 33.1172 24.5228C33.1332 24.6929 33.1438 24.8578 33.1598 25.0227C33.1651 25.0652 33.1651 25.1131 33.1704 25.1557C33.2343 25.8737 33.3672 26.5704 33.463 27.2512C33.5693 27.932 33.7395 28.5755 33.8672 29.1925C33.9842 29.8147 34.181 30.3785 34.3299 30.9104C34.4948 31.4369 34.6064 31.9369 34.782 32.3464C34.9415 32.7666 35.0798 33.1335 35.1915 33.4367C35.4202 34.043 35.5532 34.3887 35.5532 34.3887L37.0902 33.676C37.0902 33.676 36.9413 33.3569 36.686 32.8038C36.5531 32.5272 36.3988 32.1868 36.218 31.7986Z" fill="url(#paint7_linear)"/>
<defs>
<linearGradient id="paint0_linear" x1="39.368" y1="41.9915" x2="53.9801" y2="41.9915" gradientUnits="userSpaceOnUse">
<stop stop-color="#0093BF"/>
<stop offset="1" stop-color="#4DBFD9"/>
</linearGradient>
<linearGradient id="paint1_linear" x1="43.8955" y1="41.8118" x2="61.5099" y2="41.8118" gradientUnits="userSpaceOnUse">
<stop stop-color="#0093BF"/>
<stop offset="1" stop-color="#4DBFD9"/>
</linearGradient>
<linearGradient id="paint2_linear" x1="51.2341" y1="41.9295" x2="65.3977" y2="41.9295" gradientUnits="userSpaceOnUse">
<stop stop-color="#0093BF"/>
<stop offset="1" stop-color="#4DBFD9"/>
</linearGradient>
<linearGradient id="paint3_linear" x1="-0.000607453" y1="48.9732" x2="69.6285" y2="48.9732" gradientUnits="userSpaceOnUse">
<stop stop-color="#0093BF"/>
<stop offset="1" stop-color="#4DBFD9"/>
</linearGradient>
<linearGradient id="paint4_linear" x1="15.9213" y1="21.1539" x2="33.1584" y2="21.1539" gradientUnits="userSpaceOnUse">
<stop stop-color="#AEB202"/>
<stop offset="1" stop-color="#5CB202"/>
</linearGradient>
<linearGradient id="paint5_linear" x1="34.8528" y1="25.3738" x2="46.5199" y2="25.3738" gradientUnits="userSpaceOnUse">
<stop stop-color="#AEB202"/>
<stop offset="1" stop-color="#5CB202"/>
</linearGradient>
<linearGradient id="paint6_linear" x1="28.8174" y1="10.0508" x2="39.1603" y2="10.0508" gradientUnits="userSpaceOnUse">
<stop stop-color="#AEB202"/>
<stop offset="1" stop-color="#5CB202"/>
</linearGradient>
<linearGradient id="paint7_linear" x1="32.9966" y1="23.0003" x2="37.0917" y2="23.0003" gradientUnits="userSpaceOnUse">
<stop stop-color="#AEB202"/>
<stop offset="1" stop-color="#5CB202"/>
</linearGradient>
</defs>
</svg>
