<svg width="26" height="27" viewBox="0 0 26 27" fill="none" xmlns="http://www.w3.org/2000/svg">
<path fill-rule="evenodd" clip-rule="evenodd" d="M14.117 1.33589C14.6091 1.82802 14.6091 2.62591 14.117 3.11804L11.5967 5.63837C11.5429 5.69214 11.4855 5.74003 11.4252 5.78204C11.7767 6.4251 11.9658 7.15166 11.9658 7.89772C11.9658 9.06748 11.5011 10.1893 10.6739 11.0165C9.8468 11.8436 8.72495 12.3083 7.55519 12.3083C6.38543 12.3083 5.26358 11.8436 4.43643 11.0165C3.60929 10.1893 3.1446 9.06748 3.1446 7.89772C3.1446 6.72796 3.60929 5.60611 4.43643 4.77896C5.26358 3.95182 6.38543 3.48713 7.55519 3.48713C8.30124 3.48713 9.02781 3.67615 9.67086 4.02767C9.71288 3.9674 9.76077 3.90999 9.81453 3.85623L12.3349 1.33589C12.827 0.843765 13.6249 0.843765 14.117 1.33589ZM18.2983 2.25863C19.1254 1.43148 20.2473 0.966797 21.417 0.966797C22.5868 0.966797 23.7086 1.43148 24.5358 2.25863C25.3629 3.08577 25.8276 4.20762 25.8276 5.37738C25.8276 6.54714 25.3629 7.66899 24.5358 8.49614C23.7086 9.32328 22.5868 9.78797 21.417 9.78797C20.671 9.78797 19.9444 9.59895 19.3013 9.24743C19.2593 9.30769 19.2114 9.36511 19.1577 9.41887L9.07634 19.5002C9.02258 19.554 8.96516 19.6019 8.90489 19.6439C9.25641 20.2869 9.44544 21.0135 9.44544 21.7596C9.44544 22.9293 8.98075 24.0512 8.15361 24.8783C7.32646 25.7055 6.20461 26.1701 5.03485 26.1701C3.86509 26.1701 2.74324 25.7055 1.9161 24.8783C1.08895 24.0512 0.624268 22.9293 0.624268 21.7596C0.624268 20.5898 1.08895 19.4679 1.9161 18.6408C2.74324 17.8137 3.86509 17.349 5.03485 17.349C5.78091 17.349 6.50747 17.538 7.15053 17.8895C7.19254 17.8292 7.24043 17.7718 7.2942 17.7181L17.3755 7.63673C17.4293 7.58296 17.4867 7.53507 17.547 7.49305C17.1955 6.85 17.0064 6.12344 17.0064 5.37738C17.0064 4.20762 17.4711 3.08577 18.2983 2.25863ZM21.417 3.48713C20.9157 3.48713 20.4349 3.68628 20.0804 4.04077C19.7259 4.39526 19.5268 4.87606 19.5268 5.37738C19.5268 5.87871 19.7259 6.3595 20.0804 6.71399C20.4349 7.06848 20.9157 7.26763 21.417 7.26763C21.9183 7.26763 22.3991 7.06848 22.7536 6.71399C23.1081 6.3595 23.3073 5.87871 23.3073 5.37738C23.3073 4.87606 23.1081 4.39526 22.7536 4.04077C22.3991 3.68628 21.9183 3.48713 21.417 3.48713ZM7.55519 6.00746C7.05386 6.00746 6.57307 6.20662 6.21858 6.56111C5.86409 6.9156 5.66494 7.39639 5.66494 7.89772C5.66494 8.39904 5.86409 8.87983 6.21858 9.23432C6.57307 9.58881 7.05386 9.78797 7.55519 9.78797C8.05651 9.78797 8.5373 9.58881 8.8918 9.23432C9.24629 8.87983 9.44544 8.39904 9.44544 7.89772C9.44544 7.39639 9.24629 6.9156 8.8918 6.56111C8.5373 6.20662 8.05651 6.00746 7.55519 6.00746ZM15.7779 16.1205C16.6051 15.2933 17.7269 14.8286 18.8967 14.8286C20.0664 14.8286 21.1883 15.2933 22.0154 16.1205C22.8426 16.9476 23.3073 18.0695 23.3073 19.2392C23.3073 20.409 22.8426 21.5308 22.0154 22.358C21.1883 23.1851 20.0664 23.6498 18.8967 23.6498C18.1506 23.6498 17.4241 23.4608 16.781 23.1093C16.739 23.1695 16.6911 23.2269 16.6373 23.2807L14.117 25.801C13.6249 26.2932 12.827 26.2932 12.3349 25.801C11.8427 25.3089 11.8427 24.511 12.3349 24.0189L14.8552 21.4986C14.909 21.4448 14.9664 21.3969 15.0266 21.3549C14.6751 20.7118 14.4861 19.9853 14.4861 19.2392C14.4861 18.0695 14.9508 16.9476 15.7779 16.1205ZM18.8967 17.349C18.3954 17.349 17.9146 17.5481 17.5601 17.9026C17.2056 18.2571 17.0064 18.7379 17.0064 19.2392C17.0064 19.7405 17.2056 20.2213 17.5601 20.5758C17.9146 20.9303 18.3954 21.1295 18.8967 21.1295C19.398 21.1295 19.8788 20.9303 20.2333 20.5758C20.5878 20.2213 20.7869 19.7405 20.7869 19.2392C20.7869 18.7379 20.5878 18.2571 20.2333 17.9026C19.8788 17.5481 19.398 17.349 18.8967 17.349ZM5.03485 19.8693C4.53353 19.8693 4.05273 20.0685 3.69824 20.4229C3.34375 20.7774 3.1446 21.2582 3.1446 21.7596C3.1446 22.2609 3.34375 22.7417 3.69824 23.0962C4.05273 23.4507 4.53353 23.6498 5.03485 23.6498C5.53618 23.6498 6.01697 23.4507 6.37146 23.0962C6.72595 22.7417 6.9251 22.2609 6.9251 21.7596C6.9251 21.2582 6.72595 20.7774 6.37146 20.4229C6.01697 20.0685 5.53618 19.8693 5.03485 19.8693Z" fill="black" fill-opacity="0.6"/>
</svg>
