<svg width="45" height="44" viewBox="0 0 45 44" fill="none" xmlns="http://www.w3.org/2000/svg">
<path d="M33.2145 43.6173H11.8701C5.82988 43.6173 0.928223 38.693 0.928223 32.6248V11.1817C0.928223 5.11356 5.82988 0.189209 11.8701 0.189209H33.2145C39.2546 0.189209 44.1563 5.11356 44.1563 11.1817V32.6248C44.1563 38.693 39.2546 43.6173 33.2145 43.6173Z" fill="#FF0000"/>
<path d="M33.9694 19.2845C33.9694 16.443 31.6683 14.1313 28.84 14.1313H15.729C12.9006 14.1313 10.5996 16.443 10.5996 19.2845V25.4128C10.5996 28.2543 12.8886 30.566 15.729 30.566H28.84C31.6683 30.566 33.9694 28.2663 33.9694 25.4128V19.2845ZM26.2633 22.8122L20.3909 25.7379C20.1632 25.8583 19.3723 25.6898 19.3723 25.4369V19.441C19.3723 19.1761 20.1632 19.0076 20.3909 19.14L26.0117 22.2102C26.2514 22.3427 26.503 22.6798 26.2633 22.8122Z" fill="white"/>
</svg>
