<svg width="19" height="21" viewBox="0 0 19 21" fill="none" xmlns="http://www.w3.org/2000/svg">
<path d="M15.1831 20.5444C16.7803 20.5444 18.0752 19.2496 18.0752 17.6523C18.0752 16.0551 16.7803 14.7603 15.1831 14.7603C13.5858 14.7603 12.291 16.0551 12.291 17.6523C12.291 19.2496 13.5858 20.5444 15.1831 20.5444Z" fill="black" fill-opacity="0.6"/>
<path d="M3.61523 8.25293H5.06127V9.69896H3.61523V8.25293Z" fill="black" fill-opacity="0.6"/>
<path d="M3.61523 11.8682H5.06127V13.3142H3.61523V11.8682Z" fill="black" fill-opacity="0.6"/>
<path d="M3.61523 15.4834H5.06127V16.9294H3.61523V15.4834Z" fill="black" fill-opacity="0.6"/>
<path d="M6.50684 8.25293H12.291V9.69896H6.50684V8.25293Z" fill="black" fill-opacity="0.6"/>
<path d="M6.50684 11.8682H12.291V13.3142H6.50684V11.8682Z" fill="black" fill-opacity="0.6"/>
<path d="M6.50684 15.4834H9.39891V16.9294H6.50684V15.4834Z" fill="black" fill-opacity="0.6"/>
<path d="M1.44604 19.0983V3.91489H3.61509V6.08395H12.2913V3.91489H14.4604V11.8681H15.9064V3.91489C15.9064 3.53138 15.754 3.16358 15.4829 2.89239C15.2117 2.62121 14.8439 2.46886 14.4604 2.46886H12.2913V1.74584C12.2913 1.36233 12.1389 0.994523 11.8678 0.723339C11.5966 0.452154 11.2288 0.299805 10.8453 0.299805H5.06112C4.67761 0.299805 4.30981 0.452154 4.03862 0.723339C3.76744 0.994523 3.61509 1.36233 3.61509 1.74584V2.46886H1.44604C1.06252 2.46886 0.694718 2.62121 0.423534 2.89239C0.15235 3.16358 0 3.53138 0 3.91489V19.0983C0 19.4818 0.15235 19.8496 0.423534 20.1208C0.694718 20.3919 1.06252 20.5443 1.44604 20.5443H9.39923V19.0983H1.44604ZM5.06112 1.74584H10.8453V4.63791H5.06112V1.74584Z" fill="black" fill-opacity="0.6"/>
</svg>
