<svg width="17" height="17" viewBox="0 0 17 17" fill="none" xmlns="http://www.w3.org/2000/svg">
<path d="M8.83246 0.98291C4.43169 0.98291 0.831055 4.58354 0.831055 8.98431C0.831055 13.3851 4.43169 16.9857 8.83246 16.9857C13.2332 16.9857 16.8339 13.3851 16.8339 8.98431C16.8339 4.58354 13.2332 0.98291 8.83246 0.98291ZM8.83246 15.3854C5.30384 15.3854 2.43134 12.5129 2.43134 8.98431C2.43134 5.4557 5.30384 2.58319 8.83246 2.58319C12.3611 2.58319 15.2336 5.4557 15.2336 8.98431C15.2336 12.5129 12.3611 15.3854 8.83246 15.3854ZM9.23253 4.98361H8.03232V9.78445L12.193 12.3449L12.8332 11.3047L9.23253 9.14434V4.98361Z" fill="black" fill-opacity="0.5"/>
</svg>
