<svg width="19" height="20" viewBox="0 0 19 20" fill="none" xmlns="http://www.w3.org/2000/svg">
<path d="M19 3.41455V5.41455H16V8.41455H14V5.41455H11V3.41455H14V0.414551H16V3.41455H19ZM16 17.4146H2V3.41455H8V1.41455H2C1.47005 1.41613 0.962265 1.62736 0.587535 2.00209C0.212805 2.37682 0.00158273 2.8846 0 3.41455V17.4146C0.00158273 17.9445 0.212805 18.4523 0.587535 18.827C0.962265 19.2017 1.47005 19.413 2 19.4146H16C16.5299 19.413 17.0377 19.2017 17.4125 18.827C17.7872 18.4523 17.9984 17.9445 18 17.4146V11.4146H16V17.4146Z" fill="black" fill-opacity="0.6"/>
</svg>
