<svg width="30" height="29" viewBox="0 0 30 29" fill="none" xmlns="http://www.w3.org/2000/svg">
<path d="M28 8.41455H23V10.4146H28V16.4146H21V18.4146H24V20.5566C23.0574 20.7999 22.2358 21.3788 21.6894 22.1846C21.143 22.9903 20.9092 23.9677 21.0319 24.9336C21.1546 25.8994 21.6253 26.7873 22.3558 27.4309C23.0863 28.0745 24.0264 28.4295 25 28.4295C25.9736 28.4295 26.9137 28.0745 27.6442 27.4309C28.3747 26.7873 28.8455 25.8994 28.9681 24.9336C29.0908 23.9677 28.857 22.9903 28.3106 22.1846C27.7642 21.3788 26.9427 20.7999 26 20.5566V18.4146H28C28.5302 18.4138 29.0384 18.2028 29.4133 17.8279C29.7882 17.453 29.9992 16.9447 30 16.4146V10.4146C29.9995 9.88428 29.7886 9.37588 29.4136 9.00092C29.0387 8.62596 28.5303 8.41508 28 8.41455ZM27 24.4146C27 24.8101 26.8827 25.1968 26.6629 25.5257C26.4432 25.8546 26.1308 26.1109 25.7654 26.2623C25.3999 26.4137 24.9978 26.4533 24.6098 26.3761C24.2219 26.299 23.8655 26.1085 23.5858 25.8288C23.3061 25.5491 23.1156 25.1927 23.0384 24.8047C22.9613 24.4168 23.0009 24.0146 23.1523 23.6492C23.3036 23.2837 23.56 22.9714 23.8889 22.7516C24.2178 22.5318 24.6044 22.4146 25 22.4146C25.5302 22.4153 26.0384 22.6263 26.4133 23.0012C26.7882 23.3761 26.9992 23.8844 27 24.4146Z" fill="black" fill-opacity="0.6"/>
<path d="M18 4.41455H13V6.41455H18V12.4146H11V14.4146H14V20.5566C13.0574 20.7999 12.2358 21.3788 11.6894 22.1846C11.143 22.9903 10.9092 23.9677 11.0319 24.9336C11.1546 25.8994 11.6253 26.7873 12.3558 27.4309C13.0863 28.0745 14.0264 28.4295 15 28.4295C15.9736 28.4295 16.9137 28.0745 17.6442 27.4309C18.3747 26.7873 18.8455 25.8994 18.9681 24.9336C19.0908 23.9677 18.857 22.9903 18.3106 22.1846C17.7642 21.3788 16.9427 20.7999 16 20.5566V14.4146H18C18.5303 14.414 19.0387 14.2031 19.4136 13.8282C19.7886 13.4532 19.9995 12.9448 20 12.4146V6.41455C19.9995 5.88428 19.7886 5.37588 19.4136 5.00092C19.0387 4.62596 18.5303 4.41508 18 4.41455ZM17 24.4146C17 24.8101 16.8827 25.1968 16.6629 25.5257C16.4432 25.8546 16.1308 26.1109 15.7654 26.2623C15.3999 26.4137 14.9978 26.4533 14.6098 26.3761C14.2219 26.299 13.8655 26.1085 13.5858 25.8288C13.3061 25.5491 13.1156 25.1927 13.0384 24.8047C12.9613 24.4168 13.0009 24.0146 13.1523 23.6492C13.3036 23.2837 13.56 22.9714 13.8889 22.7516C14.2178 22.5318 14.6044 22.4146 15 22.4146C15.5302 22.4153 16.0384 22.6263 16.4133 23.0012C16.7882 23.3761 16.9992 23.8844 17 24.4146Z" fill="black" fill-opacity="0.6"/>
<path d="M8 0.414551H2C1.46973 0.41508 0.961329 0.625964 0.586371 1.00092C0.211413 1.37588 0.000529477 1.88428 0 2.41455V8.41455C0.000529477 8.94482 0.211413 9.45322 0.586371 9.82818C0.961329 10.2031 1.46973 10.414 2 10.4146H4V20.5566C3.05734 20.7999 2.23581 21.3788 1.6894 22.1846C1.14299 22.9903 0.909207 23.9677 1.03188 24.9336C1.15456 25.8994 1.62526 26.7873 2.35577 27.4309C3.08627 28.0745 4.02643 28.4295 5 28.4295C5.97357 28.4295 6.91373 28.0745 7.64423 27.4309C8.37474 26.7873 8.84544 25.8994 8.96812 24.9336C9.09079 23.9677 8.85701 22.9903 8.3106 22.1846C7.76419 21.3788 6.94266 20.7999 6 20.5566V10.4146H8C8.53027 10.414 9.03867 10.2031 9.41363 9.82818C9.78859 9.45322 9.99947 8.94482 10 8.41455V2.41455C9.99947 1.88428 9.78859 1.37588 9.41363 1.00092C9.03867 0.625964 8.53027 0.41508 8 0.414551ZM7 24.4146C7 24.8101 6.8827 25.1968 6.66294 25.5257C6.44318 25.8546 6.13082 26.1109 5.76537 26.2623C5.39991 26.4137 4.99778 26.4533 4.60982 26.3761C4.22186 26.299 3.86549 26.1085 3.58579 25.8288C3.30608 25.5491 3.1156 25.1927 3.03843 24.8047C2.96126 24.4168 3.00087 24.0146 3.15224 23.6492C3.30362 23.2837 3.55996 22.9714 3.88886 22.7516C4.21776 22.5318 4.60444 22.4146 5 22.4146C5.53027 22.4151 6.03867 22.626 6.41363 23.0009C6.78859 23.3759 6.99947 23.8843 7 24.4146ZM2 8.41455V2.41455H8L8.002 8.41455H2Z" fill="black" fill-opacity="0.6"/>
</svg>
