<svg width="23" height="19" viewBox="0 0 23 19" fill="none" xmlns="http://www.w3.org/2000/svg">
<path d="M13.7651 15.0899H1.61942L1.61699 2.86815L10.8752 9.27782C11.0106 9.37149 11.1713 9.42167 11.3359 9.42167C11.5006 9.42167 11.6613 9.37149 11.7967 9.27782L21.0525 2.87139V10.2317H22.6719V2.13456C22.6712 1.70526 22.5004 1.29372 22.1968 0.990163C21.8933 0.686602 21.4818 0.515779 21.0525 0.515137H1.61942C1.19005 0.515565 0.778398 0.68632 0.474791 0.989927C0.171183 1.29353 0.000428722 1.70519 0 2.13456V15.0899C0.000642505 15.5192 0.171466 15.9307 0.475027 16.2343C0.778588 16.5379 1.19012 16.7087 1.61942 16.7093H13.7651V15.0899ZM19.2703 2.13456L11.3359 7.62763L3.40159 2.13456H19.2703Z" fill="#606060"/>
<path d="M19.4332 18.3288C21.2219 18.3288 22.672 16.8787 22.672 15.0899C22.672 13.3012 21.2219 11.8511 19.4332 11.8511C17.6444 11.8511 16.1943 13.3012 16.1943 15.0899C16.1943 16.8787 17.6444 18.3288 19.4332 18.3288Z" fill="#606060"/>
</svg>
