<svg width="125" height="126" viewBox="0 0 125 126" fill="none" xmlns="http://www.w3.org/2000/svg">
<path d="M49.2403 13.8456C22.0461 21.1322 5.90788 49.0845 13.1945 76.2787C20.4812 103.473 48.4335 119.611 75.6277 112.325C102.822 105.038 118.96 77.0856 111.674 49.8914C104.387 22.6972 76.4346 6.55891 49.2403 13.8456Z" fill="url(#paint0_linear)"/>
<path d="M90.514 91.1655C106.023 75.6565 106.023 50.5115 90.514 35.0025C75.005 19.4935 49.86 19.4935 34.351 35.0025C18.842 50.5115 18.842 75.6565 34.351 91.1655C49.86 106.674 75.005 106.674 90.514 91.1655Z" fill="#005549"/>
<path d="M62.0089 36.2666L40.416 53.0745V84.6346H55.0992V74.4515C55.0992 70.5388 58.0963 67.3603 62.0089 67.3603C65.9215 67.3603 68.9186 70.5388 68.9186 74.4515V84.6346H83.6018V53.0745L62.0089 36.2666ZM62.0089 55.8988C60.5492 55.8988 59.3659 54.7156 59.3659 53.2559C59.3659 51.7962 60.5492 50.6129 62.0089 50.6129C63.4686 50.6129 64.6519 51.7962 64.6519 53.2559C64.6519 54.7156 63.4686 55.8988 62.0089 55.8988Z" fill="white"/>
<defs>
<linearGradient id="paint0_linear" x1="111.674" y1="49.8922" x2="13.1965" y2="76.2791" gradientUnits="userSpaceOnUse">
<stop stop-color="white"/>
<stop offset="0.5763" stop-color="#DEDEDE"/>
<stop offset="1" stop-color="#CACACA"/>
</linearGradient>
</defs>
</svg>
