<svg width="113" height="113" viewBox="0 0 113 113" fill="none" xmlns="http://www.w3.org/2000/svg">
<path d="M56.1622 5.1877C28.0087 5.18771 5.18574 28.0107 5.18574 56.1642C5.18574 84.3177 28.0087 107.141 56.1622 107.141C84.3157 107.141 107.139 84.3177 107.139 56.1642C107.139 28.0106 84.3157 5.1877 56.1622 5.1877Z" fill="url(#paint0_linear)"/>
<path d="M84.2445 84.2446C99.7535 68.7356 99.7535 43.5906 84.2445 28.0816C68.7355 12.5726 43.5905 12.5726 28.0815 28.0816C12.5725 43.5906 12.5725 68.7356 28.0815 84.2446C43.5905 99.7536 68.7355 99.7536 84.2445 84.2446Z" fill="#005D1F"/>
<path d="M83.1931 61.643L79.3398 69.6423C77.5969 73.2607 73.2539 74.7734 69.6433 73.0342L35.3428 56.5116C31.7323 54.7724 30.2118 50.4257 31.951 46.8151L35.8043 38.8158C36.6551 37.0494 38.7804 36.2995 40.5545 37.1542L48.8651 41.1574C50.6314 42.0082 51.3813 44.1334 50.5267 45.9076L48.2215 50.6932L66.9981 59.7379L69.3033 54.9523C70.1541 53.1859 72.2794 52.436 74.0535 53.2907L81.547 56.9003C83.3056 57.7474 84.044 59.8767 83.1931 61.643Z" fill="white"/>
<defs>
<linearGradient id="paint0_linear" x1="107.139" y1="56.165" x2="5.18755" y2="56.165" gradientUnits="userSpaceOnUse">
<stop stop-color="white"/>
<stop offset="0.5763" stop-color="#DEDEDE"/>
<stop offset="1" stop-color="#CACACA"/>
</linearGradient>
</defs>
</svg>
