<svg width="21" height="16" viewBox="0 0 21 16" fill="none" xmlns="http://www.w3.org/2000/svg">
<path d="M12.76 4.30957L16.5 4.30957C17.88 4.30957 19 5.42957 19 6.80957C19 8.18957 17.88 9.30957 16.5 9.30957L12.76 9.30957C13.57 10.5196 14.94 11.3096 16.5 11.3096C18.99 11.3096 21 9.29957 21 6.80957C21 4.31957 18.99 2.30957 16.5 2.30957C14.94 2.30957 13.57 3.09957 12.76 4.30957ZM8.13 14.1496L10.39 9.60957C10.46 9.43957 10.5 9.25957 10.5 9.06957L10.5 8.30957L16.5 8.30957C17.33 8.30957 18 7.63957 18 6.80957C18 5.97957 17.33 5.30957 16.5 5.30957L5.76 5.30957L6.48 1.87957C6.49 1.79957 6.51 1.72957 6.51 1.63957C6.51 1.32957 6.38 1.04957 6.18 0.84957L5.38 0.0595696L0.44 4.99957C0.17 5.26957 -2.44347e-07 5.64957 -2.62268e-07 6.05957L-5.59069e-07 12.8496C-5.91852e-07 13.5996 0.550001 14.1796 1.28 14.2896L6.55 15.0396C6.62 15.0496 6.69 15.0596 6.75 15.0596C7.37 15.0596 7.91 14.6796 8.13 14.1496Z" fill="#09AE53"/>
</svg>
